<?xml version="1.0" encoding="UTF-8" standalone="no"?>
<!-- Created with Inkscape (http://www.inkscape.org/) -->

<svg
   xmlns:dc="http://purl.org/dc/elements/1.1/"
   xmlns:cc="http://creativecommons.org/ns#"
   xmlns:rdf="http://www.w3.org/1999/02/22-rdf-syntax-ns#"
   xmlns:svg="http://www.w3.org/2000/svg"
   xmlns="http://www.w3.org/2000/svg"
   xmlns:sodipodi="http://sodipodi.sourceforge.net/DTD/sodipodi-0.dtd"
   xmlns:inkscape="http://www.inkscape.org/namespaces/inkscape"
   width="744.09448819"
   height="1052.3622047"
   id="svg2"
   version="1.1"
   inkscape:version="0.48.2 r9819"
   sodipodi:docname="launcher.svg">
  <defs
     id="defs4" />
  <sodipodi:namedview
     id="base"
     pagecolor="#ffffff"
     bordercolor="#666666"
     borderopacity="1.0"
     inkscape:pageopacity="0.0"
     inkscape:pageshadow="2"
     inkscape:zoom="1"
     inkscape:cx="11.176591"
     inkscape:cy="662.75765"
     inkscape:document-units="px"
     inkscape:current-layer="layer1"
     showgrid="false"
     inkscape:window-width="1366"
     inkscape:window-height="706"
     inkscape:window-x="-8"
     inkscape:window-y="-8"
     inkscape:window-maximized="1" />
  <metadata
     id="metadata7">
    <rdf:RDF>
      <cc:Work
         rdf:about="">
        <dc:format>image/svg+xml</dc:format>
        <dc:type
           rdf:resource="http://purl.org/dc/dcmitype/StillImage" />
        <dc:title></dc:title>
      </cc:Work>
    </rdf:RDF>
  </metadata>
  <g
     inkscape:label="Layer 1"
     inkscape:groupmode="layer"
     id="layer1">
    <g
       id="g3930"
       transform="matrix(0.09069891,0,0,0.09069891,-85.777579,244.93234)"
       inkscape:export-filename="launcher.png"
       inkscape:export-xdpi="90"
       inkscape:export-ydpi="90">
      <path
         inkscape:export-ydpi="90"
         inkscape:export-xdpi="90"
         inkscape:export-filename="launcher.png"
         inkscape:connector-curvature="0"
         id="path3926"
         d="m 760.5,843.36218 c 0,0 -3,17.5 -2.5,25 0.5,7.5 -1.75,15.25 10,18.25 11.75,3 83,1 95.5,1.75 12.5,0.75 38.25,3.75 48.25,7.75 10,4 46.5,-0.75 52,-0.75 5.5,0 19.5,-1.5 23.5,-6.75 4,-5.25 6,-12 0,-14.25 -6,-2.25 -19.25,-9.5 -19.25,-9.5 0,0 21,-4.25 28,-8 7,-3.75 17.75,-13.5 15.25,-20.5 -2.5,-7 -9,-13.5 -21.5,-15.5 -12.5,-2 -32.25,-8.25 -38.75,-12.5 -6.5,-4.25 -8.5,-6.75 -15.25,-7.5 -6.75,-0.75 -28,0.75 -36.5,-0.25 -8.5,-1 -17,1.75 -20.75,-8.75 -3.75,-10.5 -7.25,-22.5 -3.25,-32.5 4,-10 9.75,-22.75 9.75,-22.75 0,0 -30.81501,-0.32673 -49.19978,3.20881 -18.38478,3.53553 -24.04163,6.36396 -24.04163,6.36396 0,0 -3.53554,8.48528 -2.82843,26.87005 0.7071,18.38478 -3.53554,12.72793 -4.94975,26.16295 -1.41421,13.43503 -7.07107,16.97057 -6.36396,22.62742 0.70711,5.65686 -5.12652,10.25305 -10.78338,11.84404 -5.65685,1.59099 -15.20279,2.12132 -19.79899,3.0052 -4.59619,0.88389 -6.53408,6.66757 -6.53408,6.66757 z"
         style="fill:#2f2f2f;fill-opacity:1;stroke:none" />
      <path
         inkscape:export-ydpi="90"
         inkscape:export-xdpi="90"
         inkscape:export-filename="launcher.png"
         inkscape:connector-curvature="0"
         id="path3922"
         d="m 308,688.86218 c 0,0 -5.5,23.5 -5,35.5 0.5,12 -7,25.5 -12.5,36.5 -5.5,11 -13,23 -23.5,35.5 -10.5,12.5 -20,17 -20,17 0,0 -20,0 -44.5,-1 -24.5,-1 -48,-2 -67,-2 -19,0 -24.5,1 -18.5,5 6,4 22,7 39.5,9.5 17.5,2.5 23,2.5 23,2.5 0,0 -0.5,8 -19.5,11.5 -19,3.5 -36.5,0 -60.5,6 -24,6 -40.5,11.5 -49.5,15.5 -9,4 -25.5,11.5 -22.5,17.5 3,6 8.5,19 36,23.5 27.5,4.5 54,-3 66,-7.5 12,-4.5 21,-10 21,-10 0,0 -14.5,10.5 9,14 23.5,3.5 32.5,-2 40.5,-5 8,-3 7,-4 22.5,-17 15.5,-13 15,-22 23,-16.5 8,5.5 6,13.5 21,19 15,5.5 28.5,2 32,-4.5 3.5,-6.5 8,-18.5 1.5,-27.5 -6.5,-9 -8,-15 -4,-31 4,-16 7.5,-24 13,-31 5.5,-7 15,-20.5 22.5,-35.5 7.5,-15 19,-32.5 19,-32.5 l 2,-15.5 c 0,0 -17,9.5 -28,3 -11,-6.5 -16.5,-15 -16.5,-15 z"
         style="fill:#ffe452;fill-opacity:1;stroke:none" />
      <path
         inkscape:export-ydpi="90"
         inkscape:export-xdpi="90"
         inkscape:export-filename="launcher.png"
         inkscape:connector-curvature="0"
         id="path3924"
         d="m 299.5,655.86218 c 0,0 -3,11 -6.5,14 -3.5,3 -12.5,5.5 -18,14.5 -5.5,9 -14.5,19.5 -14.5,19.5 0,0 -0.5,3 7.5,16 8,13 7,14.5 4.5,23.5 -2.5,9 -8.5,13.5 -15,11.5 -6.5,-2 -20,-9 -23.5,-15 -3.5,-6 -5,-7 -5,-7 0,0 -13,3.5 -14,10 -1,6.5 -6,10 -13.5,17 -7.5,7 -34,15 -39.5,10 -5.5,-5 -8,-7 -5.5,-15 2.5,-8 0,-9 0,-9 0,0 -28.5,3.5 -41,-1.5 -12.5,-5 -17,-7.5 -10,-14 7,-6.5 16,-8 16,-8 0,0 -27,-4.5 -38.5,-16.5 -11.5,-12 -17,-19 -9,-20 8,-1 29,-3 44,-1 15,2 17,-2.5 25,0.5 8,3 12.5,11.5 23,11.5 10.5,0 39,0 39,0 l 22.5,-2 c 0,0 23.5,-20.5 30,-26 6.5,-5.5 13,-10 13,-10 z"
         style="fill:#ffe452;fill-opacity:1;stroke:none" />
      <path
         inkscape:export-ydpi="90"
         inkscape:export-xdpi="90"
         inkscape:export-filename="launcher.png"
         sodipodi:nodetypes="cssssssssssscsssssssc"
         inkscape:connector-curvature="0"
         id="path3911"
         d="m 65,337.36218 c 0,0 20.714286,10.71429 36.42857,18.57143 15.71429,7.85714 17.85714,15 28.57143,16.42857 10.71429,1.42857 2.32998,8.75364 20.51273,-2.86312 18.18275,-11.61675 44.92799,-31.44639 63.61581,-38.51746 18.68783,-7.07106 35.37914,-11.26555 40.4299,-3.90895 6.64928,9.6849 1.01015,23.23351 -6.06091,32.32489 -7.07107,9.09137 -17.67767,24.74873 -22.72844,32.82995 -5.05076,8.08122 -22.19766,29.06326 -13.26909,29.77755 8.92857,0.71428 8.57143,0.35714 15,6.07143 6.42857,5.71428 13.57143,11.78571 23.21429,13.92857 9.64285,2.14286 14.28571,6.78571 20,10 5.71428,3.21428 54.28571,16.42857 54.28571,16.42857 0,0 7.34019,12.18223 -0.74103,30.36498 -8.08122,18.18274 -74.75129,38.38579 -86.87312,38.38579 -12.12183,0 -40.4061,1.01016 -52.52793,-5.05076 -12.12183,-6.06091 -15.15229,-15.15229 -43.43656,-32.32488 C 113.13709,482.63615 109.09647,484.65645 86.873119,460.41279 64.649763,436.16913 50.507627,435.15898 43.436559,410.91532 36.365492,386.67166 34.345187,360.40769 48.487322,353.33662 62.629458,346.26555 65,337.36218 65,337.36218 z"
         style="fill:#ffe452;fill-opacity:1;stroke:none" />
      <path
         inkscape:export-ydpi="90"
         inkscape:export-xdpi="90"
         inkscape:export-filename="launcher.png"
         inkscape:connector-curvature="0"
         id="path3913"
         d="m 63.571429,335.93361 c 0,0 -7.857143,-3.57143 -21.428572,-21.42857 -13.571428,-17.85714 -26.071428,-41.07143 -26.071428,-41.07143 0,0 -3.214286,-6.07143 -4.642858,0.71429 -1.428571,6.78571 5,27.14285 5.357143,35.71428 0.357143,8.57143 0.357143,28.57143 0.357143,28.57143 0,0 -1.428571,3.57143 -6.785714,0.35714 C 5,335.57647 -13.928571,320.93361 -25.714286,319.50504 -37.5,318.07647 -62.142857,309.1479 -62.142857,309.1479 c 0,0 37.142857,18.57142 51.428571,27.5 14.2857146,8.92857 18.9285717,16.78571 18.9285717,16.78571 0,0 0.7142857,5.71429 -9.2857143,7.14286 -10.0000004,1.42857 -29.6428574,5 -42.1428574,7.14285 -12.5,2.14286 -37.5,10 -31.785714,10.35715 5.714286,0.35714 50.357143,8.92857 65,10.71428 14.6428572,1.78572 18.9285714,5.35715 18.9285714,5.35715 0,0 -4.2857142,2.14285 -13.9285714,4.64285 -9.642857,2.5 -35.535714,9.82143 -42.321429,12.5 -6.785714,2.67857 -9.821428,4.82143 -14.821428,6.78572 -5,1.96428 -18.035715,4.64285 -23.214286,6.60714 -5.178571,1.96429 -12.5,6.60714 -0.892857,6.78571 11.607143,0.17858 61.964286,-0.71428 75.714286,-0.17857 13.7499997,0.53572 22.857143,-0.71428 21.428571,1.42857 -1.4285713,2.14286 -11.42857129,4.64286 -13.7499999,5.71429 -2.3214285,1.07143 -16.6071431,8.39286 -12.3214281,8.92857 4.285714,0.53572 34.107142,0.17857 39.107142,0.89286 5,0.71428 14.642858,4.10714 13.928572,16.25 -0.714286,12.14286 -6.071429,43.39286 -4.107143,44.64286 1.964286,1.25 0.357143,5.35714 8.392857,5 8.035715,-0.35715 23.571429,-2.14286 25,-5.17858 1.428572,-3.03571 6.071429,-10.35714 6.071429,-15.71428 0,-5.35714 3.035714,-17.32143 3.035714,-17.32143 0,0 6.964286,16.78571 7.321429,23.92857 0.357143,7.14286 -2.857143,16.07143 1.785714,22.5 4.642857,6.42857 8.928571,8.92857 17.857147,11.42857 8.92857,2.5 35.35714,7.14286 42.14285,7.14286 6.78572,0 20.71429,-3.21429 16.07143,-13.92857 -4.64286,-10.71429 -7.14286,-18.92857 -15.71428,-23.92857 -8.57143,-5 -33.57143,-24.64286 -41.78572,-27.5 -8.214284,-2.85715 -13.571427,-20.71429 -21.785713,-26.07143 -8.214285,-5.35714 -21.428571,-12.85714 -22.857143,-19.28572 -1.428571,-6.42857 -11.428571,-17.14285 -16.071428,-27.5 -4.642857,-10.35714 -10,-26.42857 -4.285715,-35 5.714286,-8.57142 5,-10.71428 9.642858,-14.64285 4.642857,-3.92857 9.732143,-4.91072 10.535714,-7.05357 0.803571,-2.14286 4.196429,-4.46429 5,-6.25 0.803571,-1.78572 -0.535714,-3.83929 -0.535714,-3.83929 z"
         style="fill:#000000;fill-opacity:1;stroke:#000000;stroke-width:1px;stroke-linecap:butt;stroke-linejoin:miter;stroke-opacity:1" />
      <path
         inkscape:export-ydpi="90"
         inkscape:export-xdpi="90"
         inkscape:export-filename="launcher.png"
         inkscape:connector-curvature="0"
         id="path3909"
         d="m 201.42857,570.93361 25.71429,-37.85714 c 0,0 15,0.71428 35.71428,-2.14286 20.71429,-2.85714 50.71429,-14.28571 57.85715,-26.42857 7.14285,-12.14286 7.14285,-41.42857 7.14285,-41.42857 0,0 43.57143,-18.57143 61.42857,-28.57143 17.85715,-10 28.57143,-20.71429 48.57143,-32.85714 20,-12.14286 37.85715,-20.71429 63.57143,-32.14286 25.71429,-11.42857 46.42857,-17.85714 55,-25.71429 8.57143,-7.85714 32.85714,-19.28571 57.85714,-27.85714 25,-8.57143 94.28572,-32.85714 120.71429,-35 26.42857,-2.14286 73.57143,-10 106.42857,6.42857 32.85715,16.42857 67.85715,50 83.57143,75.71429 15.71429,25.71428 41.42857,100 49.28572,134.28571 7.85714,34.28572 10.71428,85 10.71428,102.85714 0,17.85715 -10,40.71429 -15.71428,67.14286 -5.71429,26.42857 0,37.14286 -5.71429,51.42857 -5.71429,14.28572 -19.28571,25 -19.28571,25 0,0 -20,-12.85714 -52.14286,-7.14285 C 860,742.36218 779.28572,753.07647 760,747.36218 c -19.28571,-5.71428 -42.14286,-29.28571 -59.28571,-36.42857 -17.14286,-7.14286 -85,-27.85714 -120.71429,-32.14286 -35.71429,-4.28571 -34.28571,-11.42857 -52.85714,-10 -18.57143,1.42858 -22.85715,5.71429 -38.57143,5.71429 -15.71429,0 -56.42857,-17.85714 -67.85714,-17.85714 -11.42858,0 -36.42858,-10.71429 -36.42858,-10.71429 0,0 -7.14285,25.71429 -11.42857,38.57143 -4.28571,12.85714 -8.57143,18.57143 -31.42857,16.42857 -22.85714,-2.14286 -39.28571,-23.57143 -35.71428,-30.71428 3.57142,-7.14286 5.71428,-17.85715 5.71428,-17.85715 0,0 -15.71428,8.57143 -33.57143,5.71429 -17.85714,-2.85714 -27.14285,-0.71429 -16.42857,-10.71429 10.71429,-10 20.71429,-37.85714 20.71429,-37.85714 0,0 -30.71429,-20 -50,-26.42857 -19.28572,-6.42857 -30.71429,-12.14286 -30.71429,-12.14286 z"
         style="fill:#214c96;fill-opacity:1;stroke:#000000;stroke-width:1px;stroke-linecap:butt;stroke-linejoin:miter;stroke-opacity:1" />
      <path
         inkscape:export-ydpi="90"
         inkscape:export-xdpi="90"
         inkscape:export-filename="launcher.png"
         inkscape:connector-curvature="0"
         d="m 65.737458,334.89619 c 3.23541,1.81927 6.305061,3.9045 9.475473,5.83024 4.16311,2.66486 8.684719,4.66263 13.105758,6.84188 3.496217,1.59793 6.851163,3.44528 10.137402,5.43076 2.937369,2.00488 5.996569,3.81104 9.067219,5.59985 3.43674,1.89181 6.7846,3.93935 10.16313,5.93197 3.11189,1.73442 6.11461,3.6523 9.18175,5.46234 2.65708,1.51102 5.41271,2.84796 8.29497,3.86902 2.51616,0.83158 4.29031,0.80747 6.69433,-0.26875 0.54375,-0.24897 1.2752,-0.57722 1.80902,-0.84814 0.28505,-0.14467 1.12066,-0.61533 0.84494,-0.45359 -6.07178,3.56178 0.17233,-0.19447 2.35916,-1.27771 0.27604,-0.15735 1.11175,-0.61525 0.82812,-0.47204 -0.84593,0.42714 -1.63284,0.97991 -2.51575,1.32416 -0.35171,0.13714 0.59254,-0.46809 0.89602,-0.6926 0.32979,-0.244 0.66018,-0.48793 1.0034,-0.71264 1.88901,-1.2368 3.90148,-2.27403 5.86304,-3.3922 1.74175,-0.98171 3.5127,-1.91169 5.252,-2.89771 0.39924,-0.22633 1.59496,-0.90849 1.19153,-0.68974 -0.73793,0.40012 -1.46348,0.82265 -2.19523,1.23397 3.60092,-2.22817 -3.93615,2.42122 5.42911,-3.18129 0.70754,-0.42327 -1.40659,0.87046 -2.16042,1.20443 -0.44531,0.19728 0.81407,-0.53518 1.22825,-0.79146 0.93032,-0.57562 1.87615,-1.12584 2.8093,-1.69685 2.57226,-1.56043 5.19242,-3.03758 7.80504,-4.52912 0.59244,-0.33823 -1.11937,0.83094 -1.77541,1.01801 -0.5546,0.15815 0.97356,-0.61851 1.46012,-0.9281 0.48345,-0.30762 0.96661,-0.61568 1.44992,-0.92351 2.79358,-1.59408 5.52084,-3.27985 8.12524,-5.168 2.42307,-1.78838 4.95555,-3.41343 7.4734,-5.06229 0.43727,-0.28827 0.86163,-0.59716 1.31182,-0.8648 6.91664,-4.11194 2.56641,-1.53858 6.35987,-3.56672 0.11424,-0.0611 3.25553,-1.81185 3.37471,-1.8492 0.56668,-0.17761 -1.03477,0.58302 -1.55216,0.87453 4.39182,-2.682 8.70986,-5.4857 13.35026,-7.73633 3.51006,-1.6117 7.03623,-3.19844 10.70618,-4.41264 3.38988,-1.08885 6.83933,-1.96205 10.25187,-2.97395 3.21864,-0.95757 6.54142,-1.38899 9.88016,-1.61979 2.03062,-0.0417 4.08276,-0.23201 6.11253,-0.05 1.14518,0.10268 1.68787,0.27441 2.79447,0.53946 1.85513,0.54482 3.70301,1.59518 4.7281,3.30081 0.19901,0.33111 0.33583,0.69582 0.50374,1.04374 1.24348,2.47483 1.81699,5.12567 2.12818,7.85427 0.44626,3.36111 -0.0762,6.6265 -1.11587,9.81952 -0.87444,2.40256 -2.12481,4.6232 -3.59549,6.7048 -1.29115,1.80911 -2.46431,3.69883 -3.74333,5.51502 -1.51804,1.908 -2.83574,3.95919 -4.22517,5.95942 -1.47514,1.93091 -2.56526,4.10793 -3.86506,6.15083 -1.43681,1.95248 -2.6299,4.06779 -3.87314,6.1459 -1.05757,1.87677 -2.4242,3.54601 -3.64349,5.31432 -1.27376,2.13612 -3.00042,3.93455 -4.61772,5.80592 -1.74679,2.2274 -3.51676,4.45316 -5.03328,6.8458 -1.45758,2.32829 -2.77941,4.73656 -4.17206,7.10307 -1.23455,1.79001 -2.07761,3.78321 -2.99389,5.74071 -1.05408,2.25609 -2.20743,4.46182 -3.38177,6.65705 -0.67146,1.47982 -2.47728,3.41517 -2.66071,5.00253 -0.0221,0.19123 0.0307,0.38378 0.046,0.57566 0.0692,0.0996 0.11387,0.22194 0.20766,0.29888 0.51464,0.42214 2.742,0.1839 3.40013,0.16588 2.39482,0.1849 3.86718,0.87231 5.73749,2.32711 2.20574,1.52795 4.07611,3.45581 6.10957,5.19203 2.61234,1.94831 5.31804,3.76399 8.028,5.57228 2.30039,1.36514 4.46928,2.96199 6.8368,4.21555 1.0539,0.55803 2.49179,1.14853 3.58362,1.61723 3.13683,1.31224 6.30059,2.56137 9.37226,4.02238 2.6322,1.12522 5.11855,2.531 7.60941,3.93227 2.04831,1.37834 4.32098,2.32274 6.56257,3.33055 1.13216,0.46442 2.13473,1.18902 3.22762,1.72652 0.46555,0.22896 1.86776,0.77819 2.34767,0.96986 0,0 -3.21248,2.15115 -3.21248,2.15115 l 0,0 c -0.55983,-0.22718 -1.85084,-0.7392 -2.38713,-1.00517 -1.08132,-0.53627 -2.07505,-1.25336 -3.20369,-1.70026 -2.24506,-1.01978 -4.52359,-1.9771 -6.57662,-3.36337 -2.47062,-1.40807 -4.94054,-2.81247 -7.56044,-3.93117 -3.06129,-1.44917 -6.20277,-2.71049 -9.31532,-4.04362 -1.23547,-0.53406 -2.4248,-1.01581 -3.61089,-1.65682 -2.36134,-1.27619 -4.5489,-2.86093 -6.85798,-4.22461 -2.7429,-1.80198 -5.48592,-3.60983 -8.11853,-5.57097 -2.02202,-1.73909 -3.89185,-3.66146 -6.10824,-5.16425 -1.77375,-1.29378 -3.39036,-2.03832 -5.62734,-2.08573 -0.91832,0.0221 -2.99895,0.28151 -3.6749,-0.47571 -0.12149,-0.1361 -0.18315,-0.31558 -0.27472,-0.47337 -0.0237,-0.2342 -0.0886,-0.46787 -0.071,-0.70261 0.12828,-1.71149 1.92026,-3.57787 2.66045,-5.11821 1.18691,-2.17659 2.32675,-4.3767 3.36831,-6.6269 0.92645,-1.96936 1.73426,-3.99675 3.00365,-5.7852 1.40328,-2.37289 2.74605,-4.78066 4.19888,-7.12438 1.47241,-2.4238 3.27108,-4.6313 4.983,-6.8886 1.59309,-1.86889 3.35495,-3.62268 4.60629,-5.75259 1.18906,-1.79268 2.59769,-3.43405 3.67348,-5.30381 1.24281,-2.08097 2.41424,-4.21571 3.86592,-6.15857 1.3398,-2.01917 2.36741,-4.23477 3.85444,-6.15955 1.39448,-2.00158 2.70412,-4.06351 4.23346,-5.96767 1.29446,-1.79731 2.42208,-3.71115 3.72095,-5.50794 1.50913,-2.04866 2.77907,-4.24689 3.70296,-6.62525 1.0737,-3.12973 1.65612,-6.35604 1.19325,-9.67045 -0.3214,-2.67904 -0.88068,-5.28789 -2.12237,-7.71102 -0.15735,-0.32565 -0.28479,-0.66753 -0.47204,-0.97696 -0.98608,-1.62946 -2.77251,-2.58827 -4.54594,-3.0944 -1.0959,-0.24768 -1.60028,-0.40192 -2.73009,-0.49295 -2.02838,-0.16342 -4.07296,0.0414 -6.10088,0.0904 -3.31015,0.23507 -6.60215,0.68829 -9.78812,1.65387 -3.42153,1.0025 -6.8718,1.89875 -10.26402,3.00084 -3.64026,1.2329 -7.15491,2.79254 -10.63409,4.42036 -0.61015,0.30389 -1.15004,0.87072 -1.83045,0.91167 -0.57952,0.0349 2.03107,-1.1174 1.49623,-0.89156 -0.60645,0.25608 -1.14979,0.64198 -1.71285,0.98303 -1.62946,0.98695 -3.15017,2.14571 -4.84204,3.03041 -6.26626,3.63597 -2.97731,1.78807 -6.60708,3.77203 -0.56521,0.30894 -1.1265,0.62507 -1.6937,0.93036 -0.53985,0.29056 -2.0119,1.33455 -1.62729,0.85712 0.43401,-0.53875 1.14436,-0.7994 1.78705,-1.05544 0.48433,-0.19295 -0.86955,0.57542 -1.30433,0.86313 -2.51599,1.65397 -5.05937,3.26385 -7.48809,5.04687 -2.59315,1.91885 -5.31927,3.62449 -8.13503,5.19874 -0.97098,0.61683 -1.91447,1.27778 -2.90325,1.86568 -1.56646,0.93137 -3.15049,1.83297 -4.73433,2.73448 -0.57745,0.32868 1.14432,-0.67564 1.71502,-1.01591 1.00194,-0.59738 -3.9758,2.35752 -3.01169,1.78225 -2.7942,1.73315 -5.61725,3.40204 -8.43813,5.09462 -0.73872,0.44324 1.47869,-0.88519 2.23431,-1.29897 0.36146,-0.19794 -0.70071,0.43401 -1.05106,0.65102 -3.58358,2.1031 -7.17269,4.18983 -10.83488,6.15368 0.6512,-0.38636 1.3042,-0.76969 1.9536,-1.15907 0.40811,-0.2447 -0.82804,0.46992 -1.22973,0.72503 -0.34147,0.21686 -0.66555,0.45998 -0.99832,0.68997 -0.29425,0.22994 -0.56957,0.48644 -0.88277,0.68983 -3.18777,2.07013 -2.96464,1.92786 -4.99392,3.04127 -0.26562,0.13544 -1.04993,0.56402 -0.79688,0.40632 0.84703,-0.52787 3.45088,-2.00698 2.58079,-1.51805 -2.24859,1.26355 -4.40063,2.68897 -6.79884,3.65734 -2.46736,0.95517 -4.32075,0.88809 -6.82387,0.008 -2.88264,-1.05916 -5.63914,-2.42498 -8.30344,-3.9503 -3.05391,-1.82184 -6.05259,-3.73522 -9.15136,-5.48196 -3.36815,-2.00934 -6.73089,-4.03018 -10.16543,-5.925 -3.09139,-1.76555 -6.135205,-3.60329 -9.087294,-5.59649 -3.263466,-1.98135 -6.602256,-3.81937 -10.061849,-5.4415 -4.421586,-2.18884 -8.913277,-4.25367 -13.099193,-6.8843 -3.216386,-1.94403 -6.359038,-4.00962 -9.71635,-5.71023 0,0 3.349874,-2.12968 3.349874,-2.12968 z"
         id="path3779"
         style="color:#000000;fill:#000000;fill-opacity:1;fill-rule:nonzero;stroke:none;stroke-width:1.20000005;marker:none;visibility:visible;display:inline;overflow:visible;enable-background:accumulate" />
      <path
         inkscape:export-ydpi="90"
         inkscape:export-xdpi="90"
         inkscape:export-filename="launcher.png"
         inkscape:connector-curvature="0"
         d="m 52.943763,334.70129 c -1.941453,-3.63083 -4.497569,-6.8872 -6.967903,-10.1655 -4.957997,-5.95482 -9.345449,-12.32639 -13.556483,-18.81987 -3.623984,-5.22664 -6.566634,-10.86295 -9.694987,-16.38512 -2.821964,-4.74572 -5.920635,-9.29865 -9.495778,-13.50721 -0.355978,-0.38913 -2.407418,-2.70703 -3.014236,-3.11524 -1.0671414,-0.71787 -7.9913339,0.2233 3.264252,-2.34015 0.428232,-0.0975 -0.404199,0.79626 -0.471825,1.23022 -0.11443,0.7343 -0.04477,1.48566 -0.06716,2.22848 0.895807,8.77153 2.94044,17.36301 4.320753,26.06288 1.346417,9.0703 1.839218,18.23512 2.142992,27.39047 0.04942,2.06025 0.07016,4.12586 0.221492,6.18258 0.116401,1.58199 0.640108,3.67019 -0.08166,5.22486 -0.123845,0.26676 -0.384827,0.44486 -0.577241,0.66729 -1.902328,0.88699 -3.701302,2.04223 -5.706984,2.66098 -0.398551,0.12295 -0.765105,-0.3381 -1.121769,-0.55432 -2.1912187,-1.32837 -4.1945524,-2.98186 -6.3673193,-4.34977 -4.315592,-2.59476 -9.0858819,-4.23142 -13.7432464,-6.07801 -8.1923873,-3.24405 -16.4007713,-6.4434 -24.5809853,-9.71814 -9.850247,-3.72748 -19.819072,-7.19614 -29.892313,-10.27614 -3.308134,-0.91271 -6.57257,-1.99934 -9.906138,-2.82165 -0.336503,-0.083 -1.297165,0.0114 -1.020795,-0.19774 4.669164,-3.53353 3.547431,-3.5514 6.572893,-2.23916 7.462435,2.85186 14.760391,6.06481 21.985448,9.46927 9.86926,4.99227 19.210732,10.95892 28.642599,16.71911 5.256548,3.37805 10.6308158,6.61104 15.62520217,10.37776 2.09184723,1.57766 3.45164373,2.74752 5.43392193,4.39899 1.6546129,1.77238 6.0384169,4.20978 6.3170449,6.87082 0.03586,0.34246 -0.09118,0.68261 -0.136765,1.02392 -0.245765,0.3156 -0.400146,0.73154 -0.737294,0.94678 -1.9738486,1.26016 -4.0403699,2.37464 -6.127806,3.43609 -0.5904566,0.30025 -1.2494362,0.44159 -1.8823494,0.63706 -2.55849536,0.79016 -5.1870066,1.31203 -7.7929984,1.91687 -6.3606382,1.2938 -12.6839682,2.72838 -19.0924282,3.77189 -7.557315,1.46781 -15.124684,2.87217 -22.689964,4.2988 -8.870776,1.7141 -17.686633,3.60267 -26.232124,6.56665 2.786631,-1.77814 -6.238662,2.9205 -4.692392,2.16221 1.368326,-0.67103 2.677955,-1.4646 4.076457,-2.07023 0.125823,-0.0545 0.253801,0.10826 0.387888,0.13692 0.518656,0.11083 1.041893,0.20038 1.566149,0.28064 0.835374,0.1279 1.674611,0.22914 2.511917,0.34371 8.958009,1.05692 17.795333,2.864 26.683348,4.3601 8.777485,1.59897 17.523609,3.39596 26.23029,5.34638 6.053532,1.41215 12.2531132,1.99965 18.3640951,3.07009 2.2106367,0.4275 4.3855755,0.962 6.5514557,1.57001 1.5453042,0.4338 3.0050542,0.77316 4.4197392,1.52995 0.09543,0.22359 0.313282,0.42916 0.286301,0.67077 -0.03258,0.29172 -0.192909,0.61063 -0.446007,0.75931 -2.06665,1.21402 -4.1971031,2.33569 -6.406105,3.26585 -0.7685772,0.32363 -1.6364371,0.32296 -2.4579116,0.46658 -1.0294399,0.17999 -2.06291,0.3361 -3.09436505,0.50415 -1.18474221,0.2113 -2.36948445,0.4226 -3.55422665,0.6339 -7.8197117,1.49173 -15.5369007,3.46676 -23.2582977,5.39225 -6.92655,1.48749 -13.450921,4.27615 -19.916911,7.0947 -1.013087,0.43148 -2.024652,0.86655 -3.039262,1.29444 -3.432826,1.44772 -2.653162,1.0425 -5.987577,2.65151 -2.614494,1.26161 -5.142844,2.56246 -7.835807,3.65214 -4.479099,2.09523 -9.227587,3.38938 -14.008096,4.57505 -3.750152,0.71455 -7.414314,1.78488 -11.045214,2.94883 -1.401178,0.80034 -7.868015,2.71138 -0.15526,-0.49473 0.340064,-0.14137 -0.5863,0.46681 -0.786502,0.77592 -0.492458,0.76033 0.376124,0.74407 0.859983,0.93129 0.717023,0.14705 1.426693,0.33614 2.151068,0.44114 4.522429,0.65555 9.171019,0.71129 13.726978,0.83207 5.541267,0.14689 8.830901,0.15806 14.445976,0.21751 12.258812,0.0971 24.517531,-0.0158 36.775853,-0.11509 6.338183,0.1014 12.6705202,0.39369 19.0080559,0.53116 3.3365639,0.13949 6.6858291,-0.0353 10.0197683,0.19257 1.8808788,0.12855 3.6921768,0.31424 5.4004538,1.11035 2.61642,2.76004 -6.1272349,4.69734 -8.4399131,5.47743 -3.8434751,1.17958 -7.6680012,2.40043 -11.3000447,4.13673 -0.5244544,0.25339 -2.0615601,1.07786 -1.5733631,0.76018 1.0451362,-0.6801 2.1608413,-1.24524 3.2504647,-1.85152 0.4977362,-0.27694 -0.9859589,0.57074 -1.4746073,0.86342 -1.4012686,0.8393 -2.799969,1.68102 -4.2070355,2.51095 -0.51035,0.47437 -2.489808,1.34902 -2.620815,2.18799 -0.01774,0.11363 0.151769,0.18543 0.258328,0.22867 0.747111,0.30319 1.906901,0.41256 2.627873,0.52258 5.3750618,0.49027 10.78386339,0.43685 16.1763099,0.43856 5.0336651,-0.0236 10.0673921,-0.0234 15.1009781,-0.0621 3.733381,-0.27223 7.252155,0.55251 10.72364,1.82383 3.601384,1.79464 4.948647,4.12432 6.642139,7.61403 1.512999,4.27476 1.600327,8.87319 1.773181,13.35795 0.246078,4.45927 -0.436605,8.88145 -0.86464,13.30635 -0.452359,2.89551 -0.527623,5.84101 -0.955405,8.73829 -0.146399,0.99153 -0.645924,3.32775 -0.84817,4.3028 -0.699037,3.86573 -1.510556,7.70907 -1.941998,11.61635 0.180277,3.54496 2.339406,3.64092 5.343435,4.04714 4.588704,0.39187 9.194689,0.31181 13.78577,0.0364 3.909209,-0.44753 7.737255,-1.2884 11.326178,-2.91464 0.474451,-0.2601 1.893625,-1.04788 1.423354,-0.78029 -7.342464,4.17785 -3.341696,2.04037 -2.402115,1.16139 0.949105,-0.88789 1.61662,-2.13356 2.316588,-3.2115 1.655281,-2.32407 2.22056,-5.08319 3.084617,-7.73844 1.125811,-3.54529 1.886805,-7.1917 2.384969,-10.87417 0.400145,-3.88686 0.426229,-7.80027 0.446739,-11.70378 0,0 4.787979,-2.43463 4.787979,-2.43463 l 0,0 c -0.04373,3.90512 -0.0079,7.81778 -0.319682,11.71358 -0.462724,3.70816 -1.326134,7.35651 -2.317768,10.95663 -0.88852,2.67514 -1.364011,5.48367 -3.002393,7.85654 -0.698215,1.08381 -1.357245,2.44071 -2.239522,3.38506 -0.302206,0.32347 -0.663818,0.59273 -1.040574,0.82515 -4.537402,2.79903 -4.36927,2.67883 -7.418382,4.24409 -3.630076,1.52048 -7.466831,2.33469 -11.382558,2.71471 -4.632694,0.24107 -9.281799,0.3035 -13.909785,-0.0793 -3.186229,-0.47458 -5.655175,-1.0344 -5.788531,-4.76517 0.450219,-3.93813 1.325165,-7.79189 1.99123,-11.69669 0.03393,-0.16357 0.846626,-4.07006 0.876846,-4.26118 0.45651,-2.88706 0.455467,-5.83464 0.937538,-8.72011 0.428985,-4.4084 1.169065,-8.81285 0.922818,-13.25612 -0.134685,-4.40771 -0.226123,-8.92806 -1.734272,-13.12249 -1.525257,-3.1823 -3.071012,-5.72992 -6.401082,-7.26434 -3.433346,-1.21294 -6.925256,-1.90409 -10.590441,-1.6864 -5.003577,-0.02 -10.0070756,0.0111 -15.010671,-0.006 -5.4521717,-0.015 -10.9201392,0.0597 -16.356451,-0.41287 -0.86337,-0.1411 -3.364122,-0.2028 -3.527073,-1.61008 -0.131031,-1.13162 2.079439,-1.91535 2.613591,-2.5036 4.429394,-2.61927 8.7956616,-5.39211 13.414132,-7.66314 3.6732808,-1.67232 7.5209484,-2.85955 11.3555184,-4.103 0.9140496,-0.30909 1.8374916,-0.59022 2.7492496,-0.90601 0.299564,-0.10375 1.144408,-0.52719 0.887848,-0.34096 -1.331995,0.96684 -2.756876,1.79878 -4.1353148,2.69817 0.066345,-0.0501 0.2076524,-0.0675 0.1990341,-0.15017 -0.014378,-0.13791 -0.1662655,-0.22194 -0.2493983,-0.3329 -1.5857463,-0.77357 -3.2676099,-0.96885 -5.0278352,-1.09694 -3.33172294,-0.24244 -6.6805875,-0.0646 -10.0156999,-0.18701 -6.3011269,-0.12295 -12.5956689,-0.39651 -18.8942699,-0.59946 -12.132737,-0.0641 -24.265378,-0.14624 -36.398326,-0.1643 -4.0408,-0.0156 -10.536129,-0.031 -14.646743,-0.0836 -4.685802,-0.0599 -9.515881,0.0115 -14.175011,-0.62735 -0.795166,-0.10903 -1.570734,-0.33091 -2.3561,-0.49637 -0.437736,-0.28766 -1.000996,-0.4424 -1.313206,-0.86297 -0.485521,-0.65404 0.340652,-1.62641 0.761037,-1.89832 3.227842,-2.08785 6.056715,-3.70473 9.588718,-4.82398 3.62164,-1.14288 7.27787,-2.16414 11.011233,-2.8799 4.749411,-1.20174 9.455798,-2.53276 13.915605,-4.6017 5.659583,-2.36901 11.026054,-5.4021 16.787367,-7.55113 6.476638,-2.79047 13.007223,-5.54267 19.939177,-7.00172 7.736331,-1.89642 15.4621223,-3.85724 23.2848829,-5.37154 2.2525307,-0.41749 4.5150662,-0.78297 6.7597233,-1.2409 0.8413154,-0.17163 2.8217808,-1.38239 2.5091688,-0.58267 -0.4632379,1.18504 -2.1591424,1.3615 -3.1334838,2.17977 -0.1835896,0.15418 0.5056574,-0.008 0.7053563,-0.14059 0.090251,-0.0599 -0.00295,-0.21668 -0.00443,-0.32502 -1.3487703,-0.75371 -2.729888,-1.09891 -4.2204254,-1.51439 -2.1425455,-0.59722 -4.29710139,-1.127 -6.4817917,-1.5518 -6.0724695,-1.0666 -12.2096424,-1.79584 -18.2216774,-3.20113 -8.654003,-1.98835 -17.348901,-3.82845 -26.085632,-5.41262 -8.959767,-1.52169 -17.883073,-3.30638 -26.943505,-4.15129 -0.664213,-0.0793 -3.625983,-0.32371 -4.470143,-0.76714 -0.351322,-0.18454 -1.048555,-0.63658 -0.763922,-0.91311 2.708183,-2.63108 6.403158,-4.10121 9.84837,-5.44809 8.570661,-2.85067 17.382824,-4.73888 26.237663,-6.47976 7.596465,-1.44588 15.189012,-2.90327 22.784165,-4.35441 6.418244,-1.07307 12.7565485,-2.52481 19.127313,-3.84265 0.46322022,-0.10996 4.9272431,-1.16401 5.5105557,-1.32341 0.7895783,-0.21577 1.5721491,-0.45817 2.3475588,-0.72034 0.6410183,-0.21673 2.3793051,-1.19295 1.8996657,-0.71565 -0.9296086,0.92509 -2.1839453,1.45496 -3.3130294,2.12214 -0.3056117,0.18059 0.5577777,-0.43923 0.8366665,-0.65885 0.095946,-0.26031 0.2814284,-0.50358 0.2878366,-0.78094 0.053233,-2.304 -4.5607506,-5.21787 -5.90572929,-6.74311 -2.17575631,-1.88302 -2.96533201,-2.61518 -5.31439481,-4.42999 -4.9185052,-3.79988 -10.2340888,-7.05216 -15.4257228,-10.45605 -9.41179,-5.79054 -18.785353,-11.71287 -28.700728,-16.61379 -7.310765,-3.38812 -14.684406,-6.62839 -22.327972,-9.20518 -3.038404,-1.12217 -3.082448,-0.60136 2.581825,-3.97195 0.265683,-0.1581 0.579128,0.21701 0.87224,0.31533 1.474115,0.49447 4.174503,1.34216 5.488986,1.75025 1.377634,0.42769 2.757881,0.84691 4.136822,1.27037 10.04728,3.15685 20.007827,6.62338 29.859139,10.34464 8.258661,3.22799 16.547263,6.37356 24.8257283,9.55042 4.733791,1.80646 9.5788068,3.41528 13.9228167,6.08367 1.723981,1.09626 3.385629,2.27714 5.10046,3.38611 0.435645,0.28173 0.859937,0.58651 1.324684,0.8171 0.328042,0.16275 1.295578,0.0942 1.039373,0.35582 -1.130908,1.15494 -2.686348,1.79857 -4.029522,2.69785 0.252283,-0.12257 0.582295,-0.14816 0.756849,-0.36771 0.932327,-1.17263 0.432653,-3.92176 0.367417,-5.1662 -0.09877,-1.88406 -0.09994,-4.39157 -0.117562,-6.24371 -0.183928,-9.16675 -0.573476,-18.34509 -1.930327,-27.42555 -1.39523,-8.68503 -3.4547822,-17.23922 -4.7171815,-25.94562 -0.032543,-0.76833 -0.1270017,-1.53652 -0.097628,-2.30498 0.019944,-0.52177 -0.1642899,-1.22281 0.2448741,-1.54719 6.0352504,-4.78479 5.8479504,-3.50822 9.5349964,0.63993 3.547433,4.26709 6.736483,8.80392 9.54558,13.593 3.098205,5.52618 5.937437,11.20875 9.54216,16.43775 4.168746,6.51271 8.56096,12.87328 13.644247,18.71791 2.543827,3.25188 5.10528,6.50617 7.261025,10.03487 0,0 -4.857518,2.84636 -4.857518,2.84636 z"
         id="path3805"
         style="color:#000000;fill:#000000;fill-opacity:1;fill-rule:nonzero;stroke:none;stroke-width:1.20000005;marker:none;visibility:visible;display:inline;overflow:visible;enable-background:accumulate" />
      <path
         inkscape:export-ydpi="90"
         inkscape:export-xdpi="90"
         inkscape:export-filename="launcher.png"
         inkscape:connector-curvature="0"
         d="m 75.495103,459.26885 c 1.15824,3.05744 2.26163,6.13502 3.342544,9.22099 1.201065,4.22353 1.964798,8.54452 3.160106,12.77596 1.008624,3.97823 1.829121,8.02568 2.46956,12.08232 0.61601,4.94149 0.687454,9.93295 0.775832,14.9063 0.0414,3.14657 -0.173048,6.31085 0.599431,9.39432 0.345971,1.381 0.680426,2.06844 1.212386,3.36321 1.001315,1.93015 2.275694,3.88352 4.053042,5.19981 0.92808,0.68733 2.263494,1.29918 3.271509,1.80751 2.933791,1.46957 6.169927,1.96212 9.308967,2.76807 0.56151,0.14417 3.43735,1.0114 4.07242,1.20168 3.46253,1.11549 6.94456,2.21492 10.51338,2.93331 3.78752,1.1561 7.72096,1.61016 11.60015,2.33412 4.19842,0.79447 8.46176,1.09615 12.724,1.26673 2.65194,0.0171 5.31686,0.24298 7.96563,0.01 0.59697,-0.0525 2.83021,-0.38047 3.42762,-0.466 1.24269,-0.29829 2.18103,-0.47344 3.3683,-0.95391 0.50457,-0.20419 1.96178,-0.94407 1.46678,-0.71768 -1.16076,0.53086 -2.19059,1.54925 -3.46435,1.63125 -0.5897,0.038 0.70268,-0.95443 0.98812,-1.47184 0.28393,-0.51467 0.47566,-1.07505 0.7135,-1.61258 1.17593,-3.40018 1.40858,-7.03493 0.92287,-10.57942 -0.59404,-3.6504 -2.16351,-6.9654 -4.13808,-10.05285 -1.73996,-2.70753 -4.18745,-4.74657 -6.74182,-6.64349 -3.29092,-2.38559 -6.16958,-5.25908 -9.40099,-7.71872 -3.28644,-2.82851 -6.86999,-5.24488 -10.46964,-7.64764 -5.12937,-3.36376 -10.47033,-6.38004 -15.72833,-9.5353 -6.50359,-3.66598 -12.493619,-8.14237 -18.101089,-13.05412 -3.800023,-3.5162 -7.0211,-7.61308 -9.996348,-11.83651 -1.747913,-2.82332 -3.639602,-5.09278 -6.291947,-7.08947 -2.426388,-1.69243 -4.748936,-3.51787 -7.048286,-5.37639 -2.175631,-1.71967 -4.301138,-3.4901 -6.136749,-5.57285 -2.600382,-3.12052 -5.363073,-6.09231 -7.900065,-9.26677 -2.19856,-2.36846 -3.765401,-5.17283 -5.191141,-8.04367 -1.254867,-2.50776 -2.865001,-4.80762 -4.374173,-7.16418 -1.767445,-2.56112 -3.469029,-5.15097 -4.898691,-7.9153 -1.779026,-3.32972 -3.120291,-6.90821 -4.311715,-10.48861 -1.334439,-4.27768 -1.883624,-8.69279 -2.25464,-13.13806 -0.224602,-3.44656 -0.423776,-6.91303 -0.262562,-10.36632 0.335716,-3.07805 1.851505,-5.88208 3.279461,-8.58194 1.404064,-2.6896 3.045221,-5.21728 5.109831,-7.44079 1.68507,-2.01361 3.579937,-3.75968 5.670128,-5.33892 5.506634,-4.13155 8.19654,-4.74781 14.201243,-5.52808 0.634582,-0.10852 1.269164,-0.21704 1.903746,-0.32557 0,0 -4.355743,3.27568 -4.355743,3.27568 l 0,0 c -0.636303,0.10291 -1.272606,0.20581 -1.908909,0.30872 -1.793175,0.25185 -3.61144,0.44289 -5.351551,0.9709 -0.506291,0.15362 -1.89951,0.87854 -1.492313,0.54072 1.002963,-0.83208 2.206145,-1.38817 3.323074,-2.05956 0.407347,-0.24485 -0.795857,0.51976 -1.193786,0.77965 -2.093948,1.5488 -4.040291,3.20928 -5.685775,5.24494 -2.114957,2.16842 -3.825989,4.63319 -5.221377,7.32727 -1.418639,2.62391 -2.892416,5.3757 -3.347835,8.35017 -0.232457,3.44546 -0.02199,6.90572 0.129761,10.35111 0.325154,4.40451 0.915243,8.77195 2.212942,13.01004 1.195729,3.54755 2.539161,7.08793 4.322849,10.38252 1.450668,2.73341 3.108732,5.33444 4.898751,7.86056 1.515205,2.37603 3.153629,4.68473 4.408473,7.21486 1.39174,2.84303 2.910298,5.62794 5.065912,7.98163 2.510961,3.18707 5.260135,6.15701 7.927896,9.21076 1.854688,2.02119 3.97212,3.76934 6.110028,5.48395 2.307663,1.83488 4.585722,3.70744 7.019541,5.37757 2.679187,2.05404 4.60731,4.3583 6.336188,7.26246 2.905779,4.20883 5.991262,8.34277 9.747586,11.83794 5.553315,4.93375 11.554945,9.34993 18.052765,12.96973 5.30012,3.13423 10.68501,6.12673 15.84666,9.48903 3.63617,2.38716 7.27157,4.77565 10.56503,7.63189 3.20576,2.48321 6.08417,5.35566 9.39231,7.71172 2.62518,1.92333 5.15821,3.98584 6.89425,6.7903 1.96542,3.17696 3.55112,6.56566 4.21717,10.27126 0.54427,3.61168 0.33396,7.35025 -0.78655,10.84283 -0.22608,0.56102 -1.07471,2.88136 -1.59019,3.29436 -3.45459,2.76781 -6.62926,4.63498 -10.83765,5.39805 -3.79532,0.51604 -7.59411,0.57352 -11.42014,0.3524 -4.2755,-0.20329 -8.5468,-0.54343 -12.76014,-1.33291 -3.89078,-0.70249 -7.82256,-1.19824 -11.62304,-2.33102 -3.57552,-0.7368 -7.07109,-1.83495 -10.53471,-2.98133 -0.97216,-0.30126 -3.05284,-0.95668 -4.001161,-1.20474 -3.179126,-0.83159 -6.444278,-1.38031 -9.425935,-2.84528 -1.174979,-0.58718 -2.353463,-1.09928 -3.404418,-1.90367 -1.812315,-1.38712 -3.122883,-3.4282 -4.160058,-5.41753 -0.556995,-1.39059 -0.855561,-1.9976 -1.213835,-3.48399 -0.751421,-3.11744 -0.580642,-6.31514 -0.613493,-9.49365 -0.0555,-4.94637 -0.111682,-9.90998 -0.773729,-14.82041 -0.642973,-4.03738 -1.465604,-8.05792 -2.446733,-12.02511 -1.146286,-4.22748 -1.957157,-8.52942 -3.150227,-12.73948 -1.07843,-3.06531 -2.17229,-6.13866 -3.515984,-9.09741 0,0 4.934156,-2.75536 4.934156,-2.75536 z"
         id="path3807"
         style="color:#000000;fill:#000000;fill-opacity:1;fill-rule:nonzero;stroke:none;stroke-width:1.20000005;marker:none;visibility:visible;display:inline;overflow:visible;enable-background:accumulate" />
      <path
         inkscape:export-ydpi="90"
         inkscape:export-xdpi="90"
         inkscape:export-filename="launcher.png"
         id="path3915"
         d="m 122.59375,322.28125 c -3.64537,-0.0567 -6.08482,4.04018 -10.4375,5.78125 -5.35715,2.14285 -7.52232,4.64732 -16.09375,18.21875 C 87.491071,359.85268 76.4375,374.5 76.4375,374.5 l 29.625,13.9375 1.4375,-0.375 c 0,0 1.80045,-5.2961 7.4375,-13.71875 2.32086,3.59802 6.0625,6.03125 6.0625,6.03125 l 8.75,-8 c 0,0 10.75,-18.25 13,-24.75 2.25,-6.5 2.5,-17.75 0.5,-18.25 -2,-0.5 -4.5,-1.5 -6.75,-0.5 -2.25,1 -4.5,4.5 -4.5,4.5 l -0.9375,1.90625 c -0.7153,-5.24017 -2.63194,-10.57246 -5.71875,-12.21875 -1.00446,-0.53572 -1.90876,-0.76817 -2.75,-0.78125 z"
         style="fill:#ffffff;fill-opacity:1;stroke:none"
         inkscape:connector-curvature="0" />
      <path
         inkscape:export-ydpi="90"
         inkscape:export-xdpi="90"
         inkscape:export-filename="launcher.png"
         inkscape:connector-curvature="0"
         d="m 71.891916,378.83539 c 1.101315,-2.32609 2.863753,-4.25607 4.447029,-6.2605 1.868085,-2.2645 3.879279,-4.39085 5.727544,-6.67493 2.014995,-2.36253 3.436556,-5.12186 4.936488,-7.81717 1.521828,-2.58417 2.73157,-5.33386 4.161728,-7.96898 1.398036,-2.74158 3.1092,-5.26443 4.988167,-7.69226 1.488253,-1.99802 3.292126,-3.70927 5.031538,-5.47944 1.61089,-1.84551 3.74894,-3.04006 5.54084,-4.68556 2.08985,-2.08434 4.49095,-3.80041 6.81726,-5.60259 3.23718,-2.5231 6.6172,-5.5826 10.7537,-6.35587 0.57641,-0.10776 1.16776,-0.10858 1.75164,-0.16286 0.62382,0.0297 1.26026,-0.0392 1.87145,0.0891 3.93864,0.827 4.97334,4.86175 5.76405,8.21973 0.81399,4.55157 0.9898,9.14485 0.0733,13.68234 -0.9248,3.46046 -2.35261,6.74664 -3.72345,10.04486 -1.05225,2.73789 -2.09154,5.44306 -3.55402,7.99024 -1.46365,2.23837 -2.75573,4.57644 -4.25488,6.79097 -1.55339,2.76691 -3.28803,5.42102 -4.97449,8.10721 -1.87457,2.96495 -3.6484,5.97785 -5.34828,9.04739 -1.20939,2.35095 -0.61419,1.18812 -1.78593,3.48831 0,0 -4.9696,2.24249 -4.9696,2.24249 l 0,0 c 1.18724,-2.30337 0.59283,-1.13551 1.78241,-3.50401 1.67758,-3.07706 3.41495,-6.09892 5.28987,-9.05744 1.6936,-2.67481 3.45747,-5.30758 4.93611,-8.1111 1.50622,-2.20728 2.80397,-4.53149 4.28079,-6.75945 1.48449,-2.53033 2.59174,-5.19431 3.62058,-7.94074 1.3639,-3.28041 2.80844,-6.53455 3.77885,-9.96274 1.04703,-4.44932 0.94583,-9.01917 0.11906,-13.50757 -0.75146,-3.124 -1.69932,-6.97988 -5.46108,-7.57311 -0.60468,-0.0954 -1.22428,-0.009 -1.83641,-0.0142 -0.56573,0.085 -1.14225,0.11602 -1.69718,0.25502 -1.57614,0.39477 -5.14491,2.3948 1.96181,-1.54262 0.3849,-0.21325 -0.72767,0.49529 -1.08282,0.7551 -0.92825,0.67906 -1.27128,0.98701 -2.16756,1.72983 -2.31612,1.80015 -4.74037,3.47104 -6.82421,5.54868 -0.50187,0.48381 -1.35459,1.33458 -1.91355,1.75959 -1.23663,0.9403 -2.6795,1.60381 -3.62632,2.90113 -1.73339,1.7755 -3.56254,3.45863 -5.07981,5.43326 -1.899353,2.39868 -3.662287,4.87206 -5.039422,7.61657 -1.451407,2.62541 -2.642138,5.38728 -4.161639,7.97254 -1.500703,2.70615 -2.904813,5.48671 -4.874886,7.89504 -1.859885,2.29031 -3.826999,4.46161 -5.763318,6.68255 -1.538791,1.94928 -3.235628,3.82777 -4.366029,6.04889 0,0 -5.12936,2.37225 -5.12936,2.37225 z"
         id="path3813"
         style="color:#000000;fill:#000000;fill-opacity:1;fill-rule:nonzero;stroke:none;stroke-width:1.20000005;marker:none;visibility:visible;display:inline;overflow:visible;enable-background:accumulate" />
      <path
         inkscape:export-ydpi="90"
         inkscape:export-xdpi="90"
         inkscape:export-filename="launcher.png"
         inkscape:connector-curvature="0"
         d="m 139.85791,327.12854 c 1.59301,0.11501 3.76095,0.012 5.0504,1.1761 0.27079,0.24448 0.43872,0.58302 0.65808,0.87453 1.2124,2.35262 0.80742,5.08647 0.60297,7.62841 -0.3004,2.04858 -0.29674,4.14842 -0.67331,6.18664 -0.23219,1.25679 -0.45331,1.76946 -0.86066,2.9766 -0.84752,2.52901 -1.88138,4.98003 -2.89177,7.44464 -1.23995,2.59628 -2.68313,5.10139 -4.24182,7.51949 -1.48337,2.30957 -2.76994,4.7376 -4.09373,7.13998 -1.35981,2.30689 -2.87971,4.51424 -4.48692,6.65437 -1.16716,1.4607 -2.22211,3.00342 -3.35024,4.49316 0,0 -5.07113,2.1779 -5.07113,2.1779 l 0,0 c 1.15074,-1.47146 2.16586,-3.03882 3.34978,-4.48599 1.59906,-2.12799 3.12487,-4.3061 4.51031,-6.58141 1.34419,-2.40797 2.61392,-4.86234 4.10171,-7.18717 1.57365,-2.37624 2.95506,-4.87453 4.25927,-7.40639 0.96005,-2.48372 2.08753,-4.90204 2.92921,-7.43568 0.38106,-1.05744 0.68169,-1.7711 0.90767,-2.87576 0.41466,-2.02706 0.35318,-4.13432 0.70686,-6.17161 0.1978,-2.36599 0.54049,-5.00967 -0.49209,-7.22103 -0.18174,-0.22446 -0.32183,-0.49032 -0.54522,-0.67337 -1.30837,-1.07209 -3.39108,-0.87202 -4.94506,-0.90898 0,0 4.57569,-3.32443 4.57569,-3.32443 z"
         id="path3815"
         style="color:#000000;fill:#000000;fill-opacity:1;fill-rule:nonzero;stroke:none;stroke-width:1.20000005;marker:none;visibility:visible;display:inline;overflow:visible;enable-background:accumulate" />
      <path
         inkscape:export-ydpi="90"
         inkscape:export-xdpi="90"
         inkscape:export-filename="launcher.png"
         inkscape:connector-curvature="0"
         d="m 144.92902,481.82733 c -0.0323,-4.25845 0.14389,-8.45058 0.80945,-12.65987 0.74899,-5.95267 2.05676,-11.7463 4.12197,-17.37663 1.51644,-4.24568 4.06821,-7.9587 6.67436,-11.59171 1.33289,-1.49175 2.30758,-3.34874 3.82717,-4.67851 0.56011,-0.49014 1.17048,-0.93219 1.82516,-1.28627 8.98578,-4.85987 5.88598,-4.16404 11.52622,-4.92314 5.45968,-0.4008 10.86759,0.227 16.12136,1.69559 4.92682,2.16608 10.15944,2.88674 15.4316,3.63226 4.21356,1.03216 8.47912,1.73872 12.77616,2.30398 0,0 -6.19763,4.38001 -6.19763,4.38001 l 0,0 c -4.31926,-0.56955 -8.60496,-1.28397 -12.85377,-2.25862 -2.86861,-0.40896 -5.78033,-0.68109 -8.59657,-1.38928 -1.6303,-0.40996 -2.97641,-0.93997 -4.56045,-1.48992 -0.78708,-0.27325 -1.57658,-0.53945 -2.36488,-0.80917 -5.19846,-1.39959 -10.57068,-1.95862 -15.9472,-1.41652 -4.44681,0.81087 -2.40593,0.78035 1.91509,-2.54929 0.57244,-0.44111 -1.29874,0.65446 -1.86977,1.09738 -0.96332,0.7472 -1.88655,2.0991 -2.62209,3.03659 -0.40835,0.52047 -0.82529,1.03415 -1.23793,1.55123 -2.63965,3.58537 -5.2671,7.23729 -6.8449,11.4396 -2.15101,5.57341 -3.55774,11.30623 -4.22383,17.25199 -0.65356,4.12661 -0.84581,8.23449 -0.58271,12.40901 0,0 -7.12681,3.63129 -7.12681,3.63129 z"
         id="path3843"
         style="color:#000000;fill:#000000;fill-opacity:1;fill-rule:nonzero;stroke:none;stroke-width:1.20000005;marker:none;visibility:visible;display:inline;overflow:visible;enable-background:accumulate" />
      <path
         inkscape:export-ydpi="90"
         inkscape:export-xdpi="90"
         inkscape:export-filename="launcher.png"
         inkscape:connector-curvature="0"
         d="m 175.24832,472.48679 c 0.15419,-2.71016 0.0822,-5.70676 1.30746,-8.21387 0.28185,-0.57671 0.71059,-1.0692 1.06588,-1.60379 5.1604,-5.22904 11.58515,-6.96179 18.46846,-7.51943 3.47014,-0.17266 6.94683,-0.10664 10.41961,-0.0877 0,0 -6.18398,4.49285 -6.18398,4.49285 l 0,0 c -3.50426,0.0183 -7.01312,0.007 -10.51156,0.23928 -2.08173,0.19773 -4.16214,0.40441 -6.18822,0.95712 -0.72481,0.19773 -2.71326,1.1924 -2.14032,0.70641 0.97142,-0.82399 7.80983,-4.92915 3.32246,-1.88808 -0.38693,0.46157 -0.85887,0.86356 -1.16078,1.38472 -1.34569,2.32301 -1.23557,5.33854 -1.30165,7.91625 0,0 -7.09736,3.61629 -7.09736,3.61629 z"
         id="path3845"
         style="color:#000000;fill:#000000;fill-opacity:1;fill-rule:nonzero;stroke:none;stroke-width:1.20000005;marker:none;visibility:visible;display:inline;overflow:visible;enable-background:accumulate" />
      <path
         inkscape:export-ydpi="90"
         inkscape:export-xdpi="90"
         inkscape:export-filename="launcher.png"
         inkscape:connector-curvature="0"
         d="m 205.0642,562.39824 c 9.06609,4.56114 17.86093,9.58188 26.60427,14.77719 12.26802,7.57294 24.37278,15.49189 37.6486,21.23248 3.15914,1.36604 6.39447,2.54867 9.59171,3.823 22.65183,8.57218 45.31281,17.10926 68.18689,25.07331 16.07254,5.9901 32.51505,10.79737 48.89529,15.84824 10.86754,3.91411 22.30863,5.91861 33.09416,10.02922 9.42723,4.42864 18.82048,8.73048 28.80209,11.79214 9.85784,3.06257 20.15212,3.3474 30.37895,3.6109 9.66079,-0.2392 19.51447,1.02216 29.04643,-0.93482 2.25146,-0.84088 4.13515,-1.67533 6.6019,-1.93451 13.31132,-1.39865 26.92036,1.77931 39.86316,4.34552 17.95431,3.32467 35.69085,7.81886 53.68801,10.90407 10.20513,1.1511 20.28988,3.12419 30.3453,5.17403 8.41874,1.42564 16.33757,4.84689 24.11522,8.25287 7.26823,3.6984 14.98356,6.35624 22.59241,9.23293 9.87193,3.76817 18.88406,9.4223 28.03539,14.64032 16.31635,7.96574 31.58161,18.15025 48.4273,24.98028 11.07653,3.54309 22.47314,1.15382 33.67595,-0.26671 11.04227,-1.21545 21.75068,-4.05651 32.58171,-6.37908 10.74135,-1.74487 21.54513,-3.22065 32.38426,-4.20927 11.94109,-0.86738 23.91782,-1.01031 35.88445,-1.16526 9.05825,-0.0361 18.11654,-0.0296 27.17483,-0.0645 0,0 -10.98846,7.98224 -10.98846,7.98224 l 0,0 c -9.03053,-0.0498 -18.06114,-0.064 -27.09156,0.0222 -11.94798,0.0873 -23.91024,0.25457 -35.82241,1.26343 -10.78056,1.09269 -21.56172,2.40568 -32.23234,4.29298 -10.8809,2.38399 -21.6777,5.13788 -32.77564,6.37957 -11.28651,1.45977 -22.77886,3.34587 -33.84341,-0.47699 -16.67866,-7.21419 -31.8969,-17.44849 -48.32497,-25.22426 -9.30383,-5.06974 -18.57882,-10.31106 -28.49871,-14.1012 -7.58439,-2.91191 -15.19614,-5.78878 -22.5026,-9.362 -7.76677,-3.27489 -15.57935,-6.63458 -23.94921,-8.03499 -9.99365,-2.11398 -20.05519,-3.91101 -30.18526,-5.24041 -17.78083,-3.32321 -35.24935,-8.2211 -53.07712,-11.3523 -15.38877,-2.88971 -31.74728,-6.52218 -47.04903,-1.38896 -9.57219,1.4461 -19.30993,0.36385 -28.94945,0.52152 -10.34203,-0.27705 -20.73727,-0.51532 -30.64417,-3.88025 -9.97319,-3.18855 -19.45281,-7.45932 -28.9715,-11.77415 -10.67823,-4.03237 -21.93111,-6.34067 -32.67572,-10.2111 -16.31892,-5.06216 -32.70779,-9.85297 -48.63465,-16.08986 -22.79574,-8.25083 -45.51393,-16.70485 -68.26739,-25.07087 -8.87957,-3.44232 -9.77274,-3.53669 -17.91115,-7.58909 -10.2809,-5.11923 -19.73012,-11.70674 -29.61802,-17.51353 -8.96376,-5.11017 -18.04804,-9.87039 -27.33748,-14.32357 0,0 11.73197,-7.59081 11.73197,-7.59081 z"
         id="path3865"
         style="color:#000000;fill:#000000;fill-opacity:1;fill-rule:nonzero;stroke:none;stroke-width:1.20000005;marker:none;visibility:visible;display:inline;overflow:visible;enable-background:accumulate" />
      <path
         inkscape:export-ydpi="90"
         inkscape:export-xdpi="90"
         inkscape:export-filename="launcher.png"
         inkscape:connector-curvature="0"
         d="m 817.99693,759.92124 c -2.19691,7.36864 -2.77208,15.09647 -3.31,22.73034 0.39524,6.81127 -2.35431,12.71386 -4.82212,18.8481 -2.26735,5.11916 -2.84593,10.63396 -3.6883,16.09343 -0.85672,2.38057 -1.31739,4.11466 -2.75901,6.24895 -1.30254,1.92837 -3.27683,3.90097 -5.2957,5.07958 -14.42718,8.42249 -10.24833,6.8946 -19.1967,9.53701 -6.58985,1.92849 -13.5183,1.16563 -20.12879,2.84849 -7.26876,3.70078 5.31796,-3.30604 8.1518,-4.61873 0.58372,-0.2704 -0.9396,0.90796 -1.24659,1.47329 -1.57028,2.89166 -1.56585,6.61662 -1.85126,9.78039 -0.34071,9.23252 -0.92572,18.54035 0.53007,27.69888 0.30885,0.99607 0.43026,2.07102 0.92655,2.98821 2.39698,4.42981 8.90397,5.19928 13.29941,5.83886 6.19387,0.57631 12.43015,0.4066 18.64254,0.34342 7.82555,-0.0433 15.6499,-0.11209 23.47556,-0.0706 11.30106,0.0787 22.60237,0.0399 33.90339,-0.0212 7.63218,0.007 15.2643,-0.0297 22.89644,-0.0496 6.04877,-0.62722 11.75205,0.76725 17.62326,1.95301 6.48886,0.74837 12.71241,2.63406 19.01943,4.22728 6.53126,1.30802 13.19412,1.66046 19.83586,1.84971 5.07237,0.0951 10.14611,0.0673 15.21909,0.0558 5.08001,-0.0408 10.15982,-0.0121 15.23979,-0.002 8.8124,0.66401 16.96269,-1.99617 24.75132,-5.8384 -2.88796,1.60945 -5.67071,3.42423 -8.66389,4.82834 -0.91645,0.42991 1.65291,-1.18119 2.38329,-1.88208 2.77748,-2.66537 3.34307,-5.09855 2.30678,-8.65938 -1.45857,-3.18844 -4.06911,-4.28771 -7.05395,-5.64118 -9.1118,-4.13171 3.32149,1.21449 -6.34242,-2.8871 -6.69713,-3.11155 -13.98838,-4.49212 -20.57816,-7.81746 -5.85644,-2.99145 -12.04541,-5.29126 -18.21728,-7.54126 -6.08828,-2.522 -12.53423,-3.62989 -18.64382,-6.0753 -7.8106,-2.79244 -15.97981,-4.64821 -24.18394,-5.84526 -7.68574,-1.36373 -15.33966,-3.28054 -22.70367,-5.87694 -6.69596,-2.96686 -13.5929,-5.73537 -19.5435,-10.05685 -4.72607,-4.10681 -7.55606,-9.45312 -9.41676,-15.32645 -1.62633,-5.8339 -2.01745,-11.90283 -2.24873,-17.92555 -0.10635,-5.10911 -0.0892,-10.22158 -0.0138,-15.33113 0.17615,-8.04913 0.15606,-16.09964 0.11331,-24.14994 0,0 12.11368,-6.17125 12.11368,-6.17125 l 0,0 c -0.0526,8.02314 -0.0831,16.04628 0.0542,24.06888 0.0409,5.08769 -0.0502,10.17558 0.0395,15.26313 0.15074,5.92 0.44101,11.88651 1.99443,17.6339 1.74351,5.56678 4.49621,10.67943 8.94903,14.57469 5.89746,4.155 12.67742,6.89284 19.2681,9.75929 7.34986,2.42804 14.90137,4.40864 22.53629,5.69371 8.28641,1.27598 16.53364,3.23889 24.43671,6.03935 6.13645,2.31124 12.60247,3.47156 18.65686,6.03856 6.18583,2.31218 12.4021,4.60218 18.25686,7.68459 6.62387,3.16049 13.88019,4.62726 20.53588,7.75619 5.33924,2.27621 11.32928,3.94855 14.13301,9.47754 0.63276,1.92289 1.27351,3.09183 0.94629,5.1866 -1.28757,8.24264 -15.9077,12.77085 -19.79058,15.688 -8.00328,3.66775 -16.31467,5.97226 -25.21479,5.42727 -5.09988,0.0167 -10.19961,0.0575 -15.29961,0.048 -5.06513,0.0114 -10.13142,0.033 -15.19468,-0.1344 -6.70505,-0.25802 -13.42262,-0.71647 -20.00472,-2.09992 -6.26434,-1.65062 -12.50511,-3.31888 -18.94004,-4.19106 -5.81273,-1.15866 -11.53596,-2.16837 -17.49929,-1.70715 -7.58569,-0.0205 -15.17136,-0.0588 -22.7571,-0.0516 -11.29331,-0.0613 -22.58705,-0.0981 -33.88025,0.008 -7.86803,0.0715 -15.73636,0.0752 -23.60409,0.17537 -6.27094,0.045 -12.5834,0.30136 -18.81827,-0.50569 -6.48206,-1.16714 -13.50296,-3.01478 -15.03419,-10.34953 -1.4345,-9.25585 -0.76744,-18.65565 -0.65776,-27.98847 0.8247,-13.4824 1.6683,-15.3088 18.15152,-21.10219 6.60883,-1.27207 13.46175,-0.82362 19.94853,-2.85932 6.51598,-2.19338 5.40015,-2.14706 -4.35251,3.86844 -1.03362,0.63754 2.09687,-1.24379 3.03683,-2.01275 2.22425,-1.81961 2.88061,-2.8874 4.14376,-5.41253 0.46447,-0.9285 0.81325,-1.91049 1.21987,-2.86573 0.88774,-5.54137 1.28803,-11.18008 3.59919,-16.39291 2.39577,-6.04349 5.43736,-11.79091 5.08716,-18.50404 0.53585,-7.67976 1.22179,-15.38782 2.89538,-22.9157 0,0 12.63522,-5.93397 12.63522,-5.93397 z"
         id="path3867"
         style="color:#000000;fill:#000000;fill-opacity:1;fill-rule:nonzero;stroke:none;stroke-width:1.20000005;marker:none;visibility:visible;display:inline;overflow:visible;enable-background:accumulate" />
      <path
         inkscape:export-ydpi="90"
         inkscape:export-xdpi="90"
         inkscape:export-filename="launcher.png"
         inkscape:connector-curvature="0"
         d="m 886.38974,741.3942 c -4.52323,3.75245 -5.53388,10.112 -6.52544,15.59854 -0.88466,5.4998 -0.91774,11.07716 -1.01669,16.63118 0.22692,6.76868 1.19816,13.88904 6.11321,18.88352 4.55496,3.63615 10.22824,4.52298 15.85361,5.08977 4.91243,0.35538 9.84252,0.28137 14.76383,0.24592 4.71831,-0.0455 9.43686,-0.0504 14.15533,-0.0649 4.99218,-0.0996 9.89447,-0.20995 14.77376,0.94147 6.19301,2.30086 12.15545,5.11969 18.18513,7.79867 4.6689,2.91061 10.04532,3.82193 15.14487,5.55028 5.26018,2.52513 10.80269,4.24764 16.53758,5.25199 6.74987,0.40029 12.72237,2.99942 18.47047,6.36917 7.286,6.90864 6.7058,12.64634 1.2429,20.48382 -7.6303,8.90686 -18.36332,13.65303 -28.43759,19.26089 -7.41179,2.5265 -15.23294,3.99708 -22.97468,5.19984 -7.25366,1.07599 -14.56407,1.68312 -21.89138,1.88871 -3.63227,0.0624 -1.84167,0.0388 -5.37179,0.0721 0,0 11.18212,-8.14022 11.18212,-8.14022 l 0,0 c 3.50036,-0.0322 1.72486,-0.007 5.32648,-0.0764 7.22583,-0.24733 14.44417,-0.76814 21.59348,-1.88768 7.71929,-1.29582 15.57462,-2.77224 22.87479,-5.63365 -20.84234,12.53523 2.10008,-0.49758 5.12437,-5.2629 5.2974,-6.59598 6.8416,-12.33127 -0.1653,-18.44015 -5.74158,-3.27748 -11.67179,-5.42151 -18.31899,-5.91023 -5.73756,-1.16212 -11.24269,-3.05563 -16.6026,-5.41103 -5.21549,-1.55113 -10.45683,-2.89443 -15.20336,-5.70072 -5.93729,-2.69938 -11.84063,-5.52132 -18.05959,-7.5306 -4.84554,-0.92301 -9.72694,-0.69139 -14.64188,-0.67399 -4.71683,0.008 -9.43345,0.0388 -14.1502,0.066 -4.94477,0.0155 -9.90409,0.0915 -14.83114,-0.39953 -5.88447,-0.74603 -11.73213,-1.93404 -16.37615,-5.90448 -5.07957,-5.57954 -6.10495,-12.50628 -6.57623,-19.82904 -0.0311,-5.62381 0.0357,-11.26583 0.90902,-16.83612 0.96411,-5.61155 1.90221,-12.13902 5.88531,-16.45772 0,0 13.00675,-5.17259 13.00675,-5.17259 z"
         id="path3869"
         style="color:#000000;fill:#000000;fill-opacity:1;fill-rule:nonzero;stroke:none;stroke-width:1.20000005;marker:none;visibility:visible;display:inline;overflow:visible;enable-background:accumulate" />
      <path
         inkscape:export-ydpi="90"
         inkscape:export-xdpi="90"
         inkscape:export-filename="launcher.png"
         inkscape:connector-curvature="0"
         d="m 345.62144,551.87422 c -0.30269,11.69986 0.0751,23.37693 -1.28735,35.01654 -1.87827,9.22495 -2.86892,18.69836 -5.76044,27.69586 -1.61312,5.01949 -2.55902,6.52599 -4.85871,11.22125 -5.61167,10.26591 -11.20104,20.56541 -17.29744,30.55499 -3.65065,5.83245 -1.85891,2.88974 -5.37459,8.82852 0,0 -12.35581,5.49013 -12.35581,5.49013 l 0,0 c 3.48693,-5.98397 1.69347,-3.03011 5.37917,-8.86234 6.18876,-9.93313 11.76332,-20.2389 17.42055,-30.47941 2.20376,-4.31051 3.46635,-6.40515 5.04639,-11.02292 3.046,-8.90207 3.96105,-18.3433 5.83806,-27.51453 1.49073,-11.488 1.16359,-23.03711 0.8298,-34.59959 0,0 12.42037,-6.3285 12.42037,-6.3285 z"
         id="path3871"
         style="color:#000000;fill:#000000;fill-opacity:1;fill-rule:nonzero;stroke:none;stroke-width:1.20000005;marker:none;visibility:visible;display:inline;overflow:visible;enable-background:accumulate" />
      <path
         inkscape:export-ydpi="90"
         inkscape:export-xdpi="90"
         inkscape:export-filename="launcher.png"
         inkscape:connector-curvature="0"
         d="m 433.79528,559.72002 c -4.6194,5.53533 -9.77088,10.55436 -14.81955,15.68793 -6.87617,7.1247 -11.93515,15.52739 -16.41521,24.28079 -3.46705,7.10994 -6.27594,14.43357 -7.66602,22.22651 -1.98981,9.00111 -4.94924,17.80342 -8.0044,26.49802 -3.66662,9.03847 -5.8518,18.4976 -8.15978,27.93369 -2.13371,7.6248 -4.49072,15.58852 -10.53183,21.02568 -4.95465,2.68871 -9.78496,5.62038 -14.86393,8.06612 -3.46146,1.66684 -12.87046,1.57645 -16.88685,1.63448 -4.19458,-0.12247 -8.6823,0.42322 -12.74085,-0.99462 -2.33567,-0.81596 -4.05948,-2.19447 -6.06611,-3.57012 -5.08182,-5.72675 -9.66507,-11.83922 -12.86748,-18.80672 0,0 11.90533,-6.72314 11.90533,-6.72314 l 0,0 c 3.05726,6.74153 7.54832,12.66973 12.5259,18.12629 2.13455,1.38339 3.30737,2.36513 5.77581,3.1001 4.04683,1.20493 8.42264,0.62387 12.56411,0.77498 4.43708,-0.0981 8.93251,-0.17716 13.28809,-1.13955 1.11496,-0.24635 4.1697,-1.64909 3.30395,-0.90459 -2.622,2.25476 -5.82946,3.72192 -8.74418,5.58287 6.70229,-4.83382 8.84133,-12.73912 11.15113,-20.32511 2.30363,-9.47299 4.30168,-19.02054 8.10906,-28.0581 3.03034,-8.59177 5.8606,-17.33116 7.93366,-26.19708 1.17996,-7.98907 4.16897,-15.40325 7.62451,-22.67547 4.4978,-8.80981 9.35986,-17.37068 16.19792,-24.62792 4.90561,-5.11654 10.20638,-9.86568 14.47221,-15.56568 0,0 12.91451,-5.34936 12.91451,-5.34936 z"
         id="path3873"
         style="color:#000000;fill:#000000;fill-opacity:1;fill-rule:nonzero;stroke:none;stroke-width:1.20000005;marker:none;visibility:visible;display:inline;overflow:visible;enable-background:accumulate" />
      <path
         inkscape:export-ydpi="90"
         inkscape:export-xdpi="90"
         inkscape:export-filename="launcher.png"
         inkscape:connector-curvature="0"
         d="m 311.30202,696.83973 c -0.34473,5.45654 0.13662,10.95889 -0.42667,16.40457 -0.41424,4.00478 -1.01,5.74136 -2.00307,9.64557 -2.09529,10.31918 -5.76963,20.07204 -9.91085,29.70824 -2.91104,7.85056 -7.14895,14.86302 -12.10764,21.54212 -4.78588,6.45953 -9.66953,12.82693 -15.16106,18.70335 -3.98872,4.32011 -2.02942,2.05663 -5.86116,6.8049 0,0 -12.4877,5.34614 -12.4877,5.34614 l 0,0 c 3.72267,-4.83897 1.8016,-2.54939 5.74023,-6.88796 5.55428,-5.79025 10.44408,-12.09934 15.21649,-18.54499 1.49055,-2.03359 3.13109,-3.95751 4.56183,-6.03361 3.24516,-4.70892 5.43344,-10.07587 7.75173,-15.26634 4.23876,-9.55107 8.08013,-19.20763 10.03158,-29.53021 0.88453,-3.30516 1.73487,-5.98555 2.12773,-9.39512 0.61675,-5.35272 0.0599,-10.77662 0.0566,-16.1419 0,0 12.47191,-6.35476 12.47191,-6.35476 z"
         id="path3875"
         style="color:#000000;fill:#000000;fill-opacity:1;fill-rule:nonzero;stroke:none;stroke-width:1.20000005;marker:none;visibility:visible;display:inline;overflow:visible;enable-background:accumulate" />
      <path
         inkscape:export-ydpi="90"
         inkscape:export-xdpi="90"
         inkscape:export-filename="launcher.png"
         inkscape:connector-curvature="0"
         d="m 359.2159,711.32821 c -4.32606,6.26347 -8.27901,12.7677 -12.19456,19.29134 -4.3618,6.38752 -8.09209,13.15487 -12.33702,19.61542 -4.01532,6.78885 -7.78654,13.71704 -11.75712,20.53159 -3.97515,7.09549 -8.71521,13.67552 -13.1927,20.44474 -4.28533,6.59519 -6.94958,13.71925 -8.59756,21.36397 -1.06463,5.41787 -2.67286,10.6969 -4.28181,15.96985 0,0 -12.18981,5.76017 -12.18981,5.76017 l 0,0 c 1.61361,-5.2192 3.28793,-10.43406 4.27891,-15.81878 1.45277,-7.80487 3.94119,-15.01108 8.21051,-21.76214 4.45695,-6.80769 9.38747,-13.28215 13.33035,-20.42753 4.00052,-6.79465 7.69795,-13.76002 11.67005,-20.57209 4.26748,-6.45445 7.96949,-13.22768 12.39712,-19.57996 3.87667,-6.43899 7.72681,-12.89509 11.88865,-19.15451 0,0 12.77499,-5.66207 12.77499,-5.66207 z"
         id="path3877"
         style="color:#000000;fill:#000000;fill-opacity:1;fill-rule:nonzero;stroke:none;stroke-width:1.20000005;marker:none;visibility:visible;display:inline;overflow:visible;enable-background:accumulate" />
      <path
         inkscape:export-ydpi="90"
         inkscape:export-xdpi="90"
         inkscape:export-filename="launcher.png"
         inkscape:connector-curvature="0"
         d="m 241.62708,816.05965 c -4.88866,-0.0588 -9.77801,-0.0559 -14.66699,-0.052 -4.9478,0.0161 -9.89558,0.005 -14.84339,0.008 -5.81536,0.007 -11.63049,-0.0338 -17.44591,-0.0303 -6.93709,-0.0457 -13.87438,-0.007 -20.81147,0.0181 -5.05694,-0.002 -10.11387,0.0122 -15.1708,0.0198 -4.70098,-0.014 -9.40199,-0.004 -14.10298,9.8e-4 -4.70785,-0.0155 -9.41573,-0.005 -14.12359,-2.5e-4 -4.71384,-0.0154 -9.42772,-0.005 -14.14157,-3e-5 -0.10962,-3e-4 -4.76615,-0.0145 -4.84265,-0.008 -0.56777,0.0476 -2.16073,0.64257 -1.67369,0.34691 3.74404,-2.04983 7.48808,-4.09966 11.23212,-6.14949 -0.49033,0.20986 -0.38793,0.0376 -0.0616,0.59796 5.61265,2.36569 10.7833,5.48041 16.54489,7.53272 7.156,2.1783 14.58348,3.12489 22.0249,3.57692 6.62261,0.27814 13.25337,0.2074 19.87979,0.16129 2.86299,-0.007 10.34331,-0.23592 7.32716,4.62622 -8.92696,5.55128 -18.20359,10.69531 -28.34697,13.62767 -5.31765,1.55801 -10.87146,1.54842 -16.31705,2.23979 -6.27291,0.72816 -12.56563,1.24513 -18.87272,1.54829 -6.2284,-0.48501 -11.905,0.98692 -17.81277,2.70941 -7.805366,2.24961 -15.798738,3.44568 -23.796963,4.72918 -10.71124,1.71834 -20.436369,6.60515 -30.25141,10.95026 2.93614,-2.38879 -12.508932,6.15625 -9.386479,4.6075 2.385957,-1.18345 4.467373,-3.06435 7.025465,-3.80563 1.58285,-0.45867 -2.684411,1.91395 -3.985912,2.92483 -1.114637,0.86575 -5.624931,4.68006 -6.758392,5.63422 -1.442753,1.43182 -3.577057,3.06345 -4.038668,5.26565 -0.925513,4.41533 6.734739,9.50952 9.48459,11.66341 10.259507,7.01256 22.260786,9.41608 34.347398,11.01557 8.225776,0.93497 16.515689,1.35205 24.687601,-0.28992 1.85721,-0.37317 9.77033,-2.61348 11.5833,-3.11848 10.13073,-3.37888 20.11731,-7.16652 30.03725,-11.12132 11.13094,-4.3301 21.90155,-9.51 32.9741,-13.98341 4.87614,-1.90056 9.8588,-3.4218 14.58486,-5.69433 1.25841,-0.6051 4.91178,-2.65713 3.70475,-1.95513 -10.29805,5.98923 -11.72567,7.46912 -8.07086,4.1025 -0.65804,0.7603 -0.0871,0.20405 -2.24354,0.55684 -5.40065,0.88351 -10.48586,2.88286 -15.63453,4.69463 -1.43369,0.57808 -2.88351,1.11767 -4.30107,1.73425 -2.54526,1.10709 -5.04867,2.30977 -7.53912,3.53519 -1.22309,0.60182 -4.81332,2.55885 -3.63497,1.87356 10.81074,-6.28721 10.00273,-5.93202 4.88821,-1.96314 -6.08244,5.86831 -7.44722,6.97148 -0.21542,11.74017 5.04559,3.04246 10.71233,4.07052 16.48044,4.61781 4.94224,0.34622 9.90078,0.27724 14.85161,0.27107 4.44127,-0.21521 8.66295,-1.48111 12.64981,-3.40696 1.18159,-0.57078 4.60877,-2.50981 3.47895,-1.84239 -2.76244,1.63184 -5.58598,3.15797 -8.37897,4.73695 6.68986,-3.97108 12.64595,-8.91163 18.62585,-13.84371 5.63156,-4.11081 10.23617,-9.32909 15.16784,-14.19914 4.88803,-4.33166 16.81268,-17.16943 22.11091,-13.18721 0.48539,0.36483 0.77487,0.93508 1.1623,1.40262 1.38152,4.36455 2.5838,8.628 4.76883,12.70508 2.83566,4.72293 6.93348,7.5311 12.20484,8.77564 4.64765,0.80535 9.38161,0.71811 14.08032,0.71345 2.70295,0.0606 5.48295,-0.0586 8.06151,-0.97497 3.72278,-1.32294 15.84893,-8.61148 -3.56939,2.13755 4.9522,-3.11415 7.94326,-7.25054 9.50804,-12.79899 1.26311,-5.29419 1.01698,-8.24137 -2.55063,-12.38752 -2.63186,-2.573 -4.67943,-5.55771 -6.52741,-8.71416 0,0 11.96201,-6.92131 11.96201,-6.92131 l 0,0 c 1.82669,3.07153 3.81349,6.00158 6.39663,8.50664 4.05747,4.71635 4.4269,7.48848 3.21046,13.55038 -1.41741,5.81412 -4.05044,10.39204 -9.19334,13.74756 -10.66205,6.37837 -16.52241,12.20307 -28.50433,11.99878 -4.77481,0.006 -9.59495,0.007 -14.28517,-1.00869 -5.49578,-1.59783 -9.74535,-4.79953 -12.73542,-9.76299 -2.21276,-3.92932 -3.65318,-7.99754 -4.78179,-12.33162 -3.26883,-3.18237 -13.12079,5.32126 8.44628,-6.83665 0.79024,-0.44548 -1.47131,1.06439 -2.16532,1.6486 -0.36772,0.30954 -4.5761,4.19953 -4.90167,4.49989 -5.03089,4.80586 -9.47436,10.23389 -15.16638,14.32321 -6.02516,4.90896 -11.87681,10.01465 -18.56449,14.03514 -10.07356,5.8476 -19.68095,13.1006 -31.68968,13.56252 -4.98058,0.0251 -9.97298,0.0805 -14.93718,-0.39552 -5.92228,-0.69897 -11.69171,-1.96991 -16.81734,-5.1934 -7.57187,-5.11143 -7.50724,-7.65454 -0.84144,-14.08337 9.93733,-8.29169 22.00902,-13.81936 33.95424,-18.61066 4.05491,-1.4182 14.83318,-6.23902 18.9632,-3.93568 0.56857,0.31709 0.70622,1.09385 1.05933,1.64078 -5.89614,7.43539 -24.00188,13.52801 -33.66614,17.27484 -11.07047,4.49048 -21.84721,9.669 -32.9897,13.98548 -9.91392,3.93731 -19.89654,7.74761 -30.06994,10.95968 -3.02371,0.82475 -8.603991,2.41899 -11.693584,2.97241 -8.246961,1.47722 -16.6032,0.9396 -24.870503,-0.0221 -12.276743,-1.73327 -24.461985,-4.36072 -34.853544,-11.52775 -3.726057,-2.88294 -11.107457,-7.45736 -10.562063,-13.18301 0.253481,-2.66109 2.261609,-4.11656 3.924258,-5.84844 3.49219,-2.93267 6.925106,-6.34037 10.796485,-8.77225 8.204608,-5.15388 16.500005,-10.43706 25.523303,-14.07618 9.876969,-4.36151 19.721872,-9.10914 30.516073,-10.71532 8.012915,-1.28973 15.996015,-2.69743 23.808105,-4.94851 5.97998,-1.72703 11.8376,-2.8335 18.09899,-2.52137 6.28738,-0.30475 12.56456,-0.8037 18.80801,-1.62027 5.40205,-0.59598 10.88362,-0.76405 16.11903,-2.39729 5.92785,-1.90184 28.30517,-12.73471 4.51849,0.0626 0.38109,-0.14918 0.75791,-0.30976 1.14327,-0.44754 0.19004,-0.0679 0.66538,0.0144 0.58137,-0.16909 -0.63248,-1.38153 -6.16923,-1.16711 -7.26489,-1.17722 -6.64687,-0.002 -13.29756,0.0216 -19.94017,-0.24358 -7.47946,-0.60384 -14.92538,-1.73389 -22.10638,-3.97964 -6.02146,-2.18948 -11.73614,-5.15182 -17.3792,-8.14683 -4.74231,-8.10956 12.56946,-10.49877 18.71001,-9.95973 4.71388,0.005 9.42779,0.0153 14.14166,-3e-5 4.70808,0.005 9.41619,0.0152 14.12427,-2.5e-4 4.7001,0.005 9.40022,0.0149 14.10031,9.7e-4 5.03872,0.008 10.07743,0.0218 15.11616,0.0199 6.92046,0.025 13.8411,0.0638 20.76155,0.0181 5.84325,0.003 11.68621,-0.037 17.5294,-0.0303 4.94036,0.004 9.8807,-0.008 14.82105,0.008 4.93673,0.004 9.87381,0.006 14.81024,-0.052 0,0 -11.32426,8.22755 -11.32426,8.22755 z"
         id="path3879"
         style="color:#000000;fill:#000000;fill-opacity:1;fill-rule:nonzero;stroke:none;stroke-width:1.20000005;marker:none;visibility:visible;display:inline;overflow:visible;enable-background:accumulate" />
      <path
         inkscape:export-ydpi="90"
         inkscape:export-xdpi="90"
         inkscape:export-filename="launcher.png"
         inkscape:connector-curvature="0"
         d="m 290.5654,606.09192 c -3.33559,4.61728 -5.62438,9.83374 -7.76118,15.07916 -3.41366,7.08765 -7.42353,13.90779 -11.88663,20.38497 -3.58601,5.3695 -6.04266,8.66284 1.43808,10.49834 5.47934,0.74588 11.04594,0.49983 16.56199,0.46777 7.11208,-0.10939 14.21363,0.26622 21.22644,-1.06812 0,0 -10.96701,8.2573 -10.96701,8.2573 l 0,0 c -7.07038,1.09206 -14.19781,0.75239 -21.33378,0.87273 -5.64129,0.073 -11.37623,0.43741 -16.93987,-0.6954 -8.15334,-2.72042 -6.77342,-6.57858 -2.49655,-12.89241 4.50961,-6.34501 8.39038,-13.11565 11.91152,-20.05381 2.09867,-5.28005 4.35178,-10.48819 7.39225,-15.31094 0,0 12.85474,-5.53959 12.85474,-5.53959 z"
         id="path3883"
         style="color:#000000;fill:#000000;fill-opacity:1;fill-rule:nonzero;stroke:none;stroke-width:1.20000005;marker:none;visibility:visible;display:inline;overflow:visible;enable-background:accumulate" />
      <path
         inkscape:export-ydpi="90"
         inkscape:export-xdpi="90"
         inkscape:export-filename="launcher.png"
         inkscape:connector-curvature="0"
         d="m 276.42326,656.59955 c -1.95634,2.79175 -5.04171,4.15115 -7.76648,5.99907 -1.74455,1.18315 -3.81961,2.93821 -5.44902,4.26898 -5.45785,4.66928 -10.72239,9.54381 -16.33904,14.02624 -6.37911,4.79995 -12.65274,9.71634 -19.08214,14.45375 0,0 -12.71289,5.04393 -12.71289,5.04393 l 0,0 c 6.42241,-4.74147 12.73222,-9.59615 19.09179,-14.41049 5.66157,-4.40622 10.91071,-9.26668 16.30871,-13.98399 1.78244,-1.47349 3.44811,-3.09676 5.32786,-4.44391 2.56833,-1.84064 5.76508,-2.81774 7.76647,-5.41399 0,0 12.85474,-5.53959 12.85474,-5.53959 z"
         id="path3897"
         style="color:#000000;fill:#000000;fill-opacity:1;fill-rule:nonzero;stroke:none;stroke-width:1.20000005;marker:none;visibility:visible;display:inline;overflow:visible;enable-background:accumulate" />
      <path
         inkscape:export-ydpi="90"
         inkscape:export-xdpi="90"
         inkscape:export-filename="launcher.png"
         inkscape:connector-curvature="0"
         d="m 306.56218,660.58199 c -5.58635,3.96562 -11.41709,7.56286 -16.88733,11.68955 -6.28091,4.74698 -11.07715,10.80462 -15.14182,17.46494 -3.56771,4.91925 -6.55874,10.20254 -9.72193,15.38013 0,0 -12.54486,5.54143 -12.54486,5.54143 l 0,0 c 3.21137,-5.15351 6.04909,-10.53892 9.74651,-15.37683 4.04907,-6.7725 8.65656,-13.05216 14.96678,-17.94432 5.31917,-4.15533 11.05305,-7.70886 16.5759,-11.5823 0,0 13.00675,-5.1726 13.00675,-5.1726 z"
         id="path3899"
         style="color:#000000;fill:#000000;fill-opacity:1;fill-rule:nonzero;stroke:none;stroke-width:1.20000005;marker:none;visibility:visible;display:inline;overflow:visible;enable-background:accumulate" />
      <path
         inkscape:export-ydpi="90"
         inkscape:export-xdpi="90"
         inkscape:export-filename="launcher.png"
         inkscape:connector-curvature="0"
         d="m 203.24128,700.90226 c -4.77554,-0.0572 -9.55178,-0.0502 -14.32763,-0.0518 -4.92597,0.0116 -9.85191,0.009 -14.77787,0.007 -5.53335,0.50079 -10.79289,-1.02951 -16.11392,-2.27326 -5.81181,-1.38483 -10.90259,-4.51611 -16.29957,-6.93709 -9.02285,-2.75714 -18.62841,-2.70852 -27.98091,-2.94187 -7.82393,-0.126 -15.649116,-0.0621 -23.473677,-0.0578 -6.755937,0.12245 -13.217528,-0.69252 -19.673825,1.62749 -7.14929,4.36547 4.059752,-2.55392 8.00221,-3.90214 0.58057,-0.19855 -0.285527,1.2271 -0.181394,1.83177 0.139512,0.81013 0.494424,1.57979 0.892741,2.29888 1.61032,2.90719 2.689826,3.64069 5.086617,6.08382 7.806502,7.64513 18.194868,11.69794 28.327908,15.29574 6.83831,2.81475 13.80651,5.26145 21.10255,6.52829 5.64632,1.26856 11.13639,2.98663 16.87045,3.86276 3.35209,0.43496 6.78311,0.78506 10.04749,1.71506 0.36094,0.10282 1.34235,0.15519 1.05412,0.39554 -3.74414,3.12219 -7.88943,5.72919 -11.83414,8.59379 -5.52456,0.0385 -10.69121,-2.35437 -15.93201,-3.86078 -5.26087,-1.25611 -10.66732,-2.04877 -16.07348,-1.67188 -4.15956,0.87596 -8.2288,2.17547 -12.31682,3.34885 -6.294978,1.80685 -5.53322,2.20389 6.10624,-4.07256 -4.59855,4.75945 2.27878,8.87884 6.14154,10.99037 6.05588,2.81755 12.53586,4.23179 19.12722,5.02774 9.10865,0.95331 18.21354,0.43387 27.30348,-0.36223 1.26831,-0.19601 2.55485,-0.29767 3.80494,-0.58804 2.48511,-0.57724 4.99074,-1.65763 7.32831,-2.63954 1.32402,-0.55616 5.14308,-2.51519 3.95517,-1.7082 -15.19368,10.32168 -7.57358,4.12728 -5.15542,2.06549 0.3436,-0.61619 0.86847,-1.16198 1.03078,-1.84857 0.25197,-1.0659 -1.79519,-0.61771 -1.79976,-0.61702 -2.50797,0.37612 -5.01039,1.29391 -7.41307,2.05343 -1.04492,0.41714 -2.12405,0.75712 -3.13476,1.25141 -1.05704,0.51694 -4.10534,2.29818 -3.05181,1.77413 2.95103,-1.46791 5.65538,-3.46967 8.74859,-4.60783 1.1525,-0.42407 -1.91046,1.5498 -2.78388,2.41307 -2.19422,2.1687 -2.54449,2.93883 -4.23288,5.43122 -2.40405,4.28867 -4.09112,9.00913 -3.19058,13.92925 0.26099,0.67365 0.37179,1.42694 0.78297,2.02095 2.74659,3.96782 9.00042,4.84462 13.29829,5.49646 7.74567,1.07347 15.37071,-1.51335 22.48242,-4.36069 -2.12524,1.2063 9.36921,-5.02707 6.96275,-3.89511 -2.72264,1.28068 -5.13243,3.2796 -8.00797,4.16513 -1.49592,0.46067 2.53626,-1.83979 3.73302,-2.84865 3.53775,-2.98233 4.36662,-4.10425 7.51336,-7.52489 3.17827,-3.58837 6.07269,-7.41291 9.14058,-11.09259 0.29062,-0.34858 3.1618,-3.79568 3.96373,-4.2821 4.32425,-2.62294 8.83196,-4.93073 13.24794,-7.3961 3.82112,2.62669 5.67748,7.17548 8.66277,10.65698 4.43409,4.12259 9.60305,6.70135 15.4316,8.11461 4.84385,0.97859 9.79817,1.00582 14.71838,1.0315 4.95559,-0.49084 14.21173,-4.88134 -5.79502,4.60721 -0.58769,0.27872 0.97572,-0.87117 1.37458,-1.38496 0.97195,-1.25201 1.15463,-2.0826 1.70091,-3.54424 1.15485,-4.54339 1.17456,-9.29605 0.86739,-13.94524 -1.61576,-6.44204 -4.79903,-12.36081 -7.75264,-18.26866 -1.70235,-3.26379 -2.75967,-6.73383 -3.49187,-10.31996 0,0 12.2024,-6.52144 12.2024,-6.52144 l 0,0 c 0.66888,3.47999 1.62829,6.86288 3.24208,10.04224 2.98177,6.08717 6.22724,12.1377 8.04249,18.70046 0.48325,4.78448 0.39912,9.67175 -0.53493,14.40286 -2.6833,9.21378 -11.63065,13.8506 -21.06318,14.36095 -4.98643,-0.0538 -10.00485,-0.16015 -14.88075,-1.33352 -5.99769,-1.66027 -11.33657,-4.52302 -15.90025,-8.82231 -2.09379,-2.51009 -1.58789,-1.7807 -3.45673,-4.52627 -0.9786,-1.43771 -2.34181,-4.56287 -4.38191,-4.65232 3.52951,-2.14708 6.97953,-4.43065 10.58853,-6.44124 0.71891,-0.40051 -1.29891,1.01644 -1.88607,1.59305 -4.28872,4.2117 -7.52401,9.3909 -11.59988,13.79315 -2.71834,3.07228 -4.26164,5.01666 -7.34027,7.71781 -7.68109,6.73931 -17.04237,11.38922 -26.07105,16.06155 -7.33533,2.72639 -15.01709,5.09659 -22.91687,3.78339 -5.84122,-0.99086 -12.84159,-2.63966 -15.11753,-8.83291 -1.19431,-5.23101 0.41557,-10.27922 2.85206,-14.96333 1.53666,-2.46009 2.10288,-3.62379 4.12624,-5.78186 6.35951,-6.78288 15.27157,-10.97767 23.79753,-14.41947 2.09481,-0.62397 10.94923,-3.71906 10.93475,1.23105 -0.003,0.86437 -0.63046,1.6097 -0.94569,2.41455 -8.61653,8.2401 -21.56178,14.48624 -33.60995,16.17044 -9.17713,0.69696 -18.37666,1.06361 -27.56188,0.19275 -6.69228,-0.92767 -13.29721,-2.48403 -19.39593,-5.48381 -3.64881,-2.11686 -10.291152,-6.10633 -8.684523,-11.4328 0.226915,-0.7523 0.806661,-1.34872 1.209991,-2.02308 4.771812,-2.78249 9.432452,-5.76502 14.315422,-8.34746 1.01838,-0.53859 2.20772,-0.65945 3.31518,-0.97677 4.14193,-1.18681 8.26412,-2.60894 12.5521,-3.14702 5.51273,-0.15745 10.99194,0.65424 16.32383,2.06003 4.90723,1.47366 10.37237,4.26726 15.52662,2.84088 -3.58915,2.68134 -7.03427,5.56713 -10.76744,8.04401 -0.25981,0.17237 -0.58045,-0.2308 -0.88038,-0.31594 -0.57701,-0.1638 -1.16059,-0.3053 -1.7473,-0.42996 -2.69255,-0.57211 -5.42436,-0.90518 -8.15116,-1.26271 -5.71917,-0.97812 -11.21302,-2.76862 -16.89934,-3.88653 -7.2566,-1.48032 -14.16294,-4.09512 -21.02015,-6.85894 -10.22253,-3.87387 -20.710228,-8.05554 -28.681985,-15.77743 -2.634641,-2.6439 -5.739142,-5.37765 -6.725826,-9.17238 -0.23092,-0.88811 -0.925612,-2.13458 -0.238302,-2.74257 6.321648,-5.59214 9.769314,-7.11233 15.661805,-9.93907 6.49708,-1.80853 13.169126,-1.15301 19.851758,-1.2365 7.78067,-0.0355 15.56169,-0.0352 23.33991,0.20626 9.54114,0.29946 19.38392,0.17072 28.53246,3.2257 5.29405,2.47339 10.40716,5.394 16.16444,6.69927 5.26793,1.25532 10.49354,2.44149 15.95881,1.99043 4.91957,-0.002 9.83912,-0.005 14.7587,0.007 4.8234,-0.002 9.64718,0.005 14.47029,-0.0518 0,0 -11.32426,8.22755 -11.32426,8.22755 z"
         id="path3901"
         style="color:#000000;fill:#000000;fill-opacity:1;fill-rule:nonzero;stroke:none;stroke-width:1.20000005;marker:none;visibility:visible;display:inline;overflow:visible;enable-background:accumulate" />
      <path
         inkscape:export-ydpi="90"
         inkscape:export-xdpi="90"
         inkscape:export-filename="launcher.png"
         inkscape:connector-curvature="0"
         d="m 315.69178,468.33501 c 9.69217,-6.35787 20.21487,-11.19984 30.50455,-16.47396 10.66991,-5.33534 21.10682,-11.01851 32.1296,-15.60655 3.31398,-1.76919 19.71925,-9.92796 1.39045,-0.39696 -1.31681,0.68474 2.54851,-1.52207 3.81649,-2.29347 3.37716,-2.05458 4.01072,-2.47899 7.4085,-4.63321 8.36757,-5.66335 17.30945,-10.4607 26.10791,-15.39451 1.18139,-0.66247 4.75758,-2.59172 3.57592,-1.92972 -2.77113,1.55246 -5.56306,3.06751 -8.3446,4.60127 5.07516,-2.9316 10.15032,-5.86321 15.22548,-8.79481 1.1599,-0.6506 4.6303,-2.61872 3.4797,-1.95181 -2.80499,1.62582 -5.58936,3.28995 -8.44306,4.82867 -1.04146,0.56155 1.97653,-1.30384 3.00166,-1.89466 13.92972,-8.02815 10.37776,-6.18127 18.66118,-10.29812 3.72513,-1.90954 16.8274,-9.42128 -0.93747,0.68937 -1.18934,0.6769 2.37818,-1.35525 3.55004,-2.06197 3.45627,-2.08435 3.81882,-2.39459 7.13538,-4.64528 7.61542,-4.82981 15.18806,-10.04339 23.53573,-13.51802 4.34497,-1.80856 8.78975,-3.23499 13.10023,-5.16978 8.77883,-3.67886 17.63271,-7.08835 26.32788,-10.97918 8.48478,-3.42173 16.53407,-7.81412 24.84784,-11.63684 4.32871,-2.06133 8.59463,-4.23888 12.80006,-6.54024 1.3541,-0.74102 5.39514,-3.0025 4.05208,-2.24164 -9.58178,5.42813 -9.73453,5.66509 -3.91616,1.80265 11.17276,-7.21435 23.07122,-13.22191 34.72518,-19.60747 8.09595,-4.79742 16.96788,-8.06784 25.57043,-11.82298 6.77315,-3.05285 13.78845,-5.16145 20.9514,-7.02716 7.92285,-4.22553 16.72229,-5.84091 25.28465,-8.23096 11.52694,-3.168 23.41183,-4.87991 34.89123,-8.19735 10.00685,-4.14935 20.59146,-5.96734 31.21407,-7.64671 10.88795,-2.95482 21.92595,-4.80247 33.1485,-5.79207 12.99582,-0.85667 26.03773,-1.01276 39.0515,-0.57538 13.0721,0.69896 25.98394,2.99064 38.56416,6.56125 9.06248,1.9873 17.23212,6.13118 25.31281,10.51012 7.60304,3.49274 13.56478,9.49995 20.06576,14.59125 6.72119,4.69506 13.06215,9.82895 18.92256,15.55911 4.95385,5.18321 8.7834,11.23989 13.56776,16.56063 4.45436,5.21705 8.0784,10.92645 11.57377,16.78888 3.83477,5.97187 6.95039,12.43558 9.96512,18.86013 4.35827,8.43512 7.64967,17.36273 10.80922,26.30087 2.30852,8.86 6.01342,17.16596 9.45504,25.60995 3.17403,6.11184 5.49051,12.44489 7.45433,19.03262 0.2629,1.10292 0.5775,2.19479 0.78869,3.30877 0.58531,3.08721 0.60343,5.023 1.23324,8.13039 0.85324,4.20974 2.24275,8.30537 3.60191,12.36973 2.14265,7.06216 5.26432,13.77523 7.26534,20.87709 1.30376,6.87856 2.18683,13.7949 3.55609,20.67669 1.05867,6.48281 2.11419,12.90866 3.5804,19.31158 1.99208,7.35707 2.24158,14.91265 2.48123,22.47766 0.25705,9.39215 0.18671,18.78923 0.23154,28.18395 0.0284,6.36104 0.0485,12.72214 0.072,19.08322 -0.006,4.93753 0.0217,9.87531 -0.0174,14.81272 -0.26687,6.08579 -1.26316,11.9794 -3.01852,17.79688 -3.11535,9.37292 -6.63433,18.55668 -8.75611,28.21853 -1.82123,10.60365 -2.26603,21.37683 -2.46153,32.11411 0.23202,7.11585 0.14453,13.97115 -2.76397,20.54972 -3.2459,5.60452 -7.3314,10.68349 -10.95234,16.06394 -2.55562,4.1028 -5.52942,7.92595 -8.56351,11.68108 0,0 -12.65342,5.37826 -12.65342,5.37826 l 0,0 c 3.12339,-3.65674 6.11097,-7.46466 8.6384,-11.56243 3.59196,-5.3359 7.45065,-10.48333 10.96547,-15.84327 3.31176,-6.53664 3.39206,-12.88766 3.20438,-20.12144 0.25881,-10.83183 0.842,-21.66168 2.45092,-32.39029 1.95113,-9.69287 5.42995,-18.86262 8.52911,-28.2317 1.66033,-5.70134 2.75204,-11.43106 3.07393,-17.38263 -0.0389,-4.93363 -0.0105,-9.86768 -0.008,-14.80141 0.0367,-6.39419 0.0801,-12.78835 0.12427,-19.18248 0.0552,-9.3883 0.0395,-18.77776 -0.16978,-28.16431 -0.25563,-7.45016 -0.66501,-14.90598 -2.49039,-22.16959 -1.53002,-6.41598 -2.65691,-12.84059 -3.56452,-19.37632 -1.31923,-6.84277 -2.47261,-13.67711 -3.57653,-20.5472 -1.9228,-7.11052 -4.9852,-13.82511 -7.12063,-20.87273 -2.61201,-7.79889 -4.43353,-15.69338 -5.73846,-23.80365 -1.90314,-6.56052 -4.28639,-12.83279 -7.32247,-18.9566 -3.35084,-8.50686 -7.15034,-16.81392 -9.34129,-25.73912 -3.12258,-8.89535 -6.51239,-17.7347 -10.94674,-26.07093 -2.97072,-6.39669 -6.03752,-12.83032 -9.92118,-18.72501 -3.453,-5.78258 -6.94817,-11.48317 -11.43617,-16.5644 -4.73051,-5.32455 -8.4822,-11.39101 -13.44642,-16.52208 -5.85015,-5.65613 -12.14116,-10.77289 -18.79127,-15.46694 -6.47187,-5.04301 -12.4273,-10.93979 -20.00737,-14.36785 -7.93498,-4.41646 -16.07184,-8.28716 -24.97742,-10.36761 -12.45262,-3.56577 -25.24567,-5.77074 -38.19562,-6.41567 -13.03372,-0.34698 -26.09244,-0.10568 -39.10092,0.81251 -11.21552,1.06698 -22.21264,3.14249 -33.13867,5.89662 -10.59306,1.70032 -21.05959,3.79468 -31.09016,7.74722 -11.52525,3.12326 -23.35967,4.96916 -34.86865,8.17823 -5.11023,1.4235 -10.38985,2.53388 -15.40752,4.26847 -3.51436,1.21491 -3.78253,1.63821 -7.10533,3.00665 -1.00182,0.41259 -2.03047,0.75676 -3.04571,1.13514 -7.09163,1.83333 -13.98258,4.1344 -20.69606,7.09841 -8.60756,3.71823 -17.41494,7.09001 -25.48601,11.91839 -2.6079,1.44252 -5.18737,2.93766 -7.82327,4.32836 -1.25067,0.65985 -4.9449,2.72081 -3.79159,1.90262 2.46561,-1.74919 5.20596,-3.07738 7.74981,-4.71071 2.49329,-1.60088 -10.56038,6.1432 -7.61075,4.59243 -11.47958,7.8077 -23.78282,14.37273 -36.2663,20.41809 -8.28152,3.86875 -16.36611,8.16831 -24.83948,11.60461 -8.70523,3.86435 -17.60479,7.19448 -26.33915,10.98035 -4.29893,1.85658 -8.78061,3.32193 -13.05263,5.22123 -1.37831,0.61279 -5.28111,2.90193 -4.02761,2.06289 2.41038,-1.61342 4.95149,-3.02885 7.51055,-4.39424 1.29381,-0.69032 -2.47267,1.57727 -3.70901,2.36591 -10.52306,7.31253 -21.8184,13.46874 -33.09621,19.53054 -4.95445,2.51145 -8.95385,4.64823 4.77619,-3.20139 1.03741,-0.5931 -1.97967,1.34163 -3.00826,1.94988 -4.96267,2.93466 -9.96791,5.79675 -14.96237,8.67698 -1.1482,0.66214 -4.60108,2.63332 -3.46535,1.95 2.68826,-1.61739 5.41584,-3.16849 8.12377,-4.75274 -5.00911,2.97448 -9.99446,5.98932 -15.02731,8.92345 -1.16712,0.68043 -4.70766,2.64733 -3.57001,1.9187 2.62134,-1.67887 5.35789,-3.17076 8.02672,-4.77306 1.15026,-0.69059 -2.31424,1.35808 -3.47092,2.03788 -4.92242,2.89297 -2.53307,1.38974 -7.35248,4.64659 -11.59773,7.44156 -23.37303,14.76054 -35.86658,20.599 -10.97394,4.66544 -21.41553,10.34973 -32.06914,15.68924 -5.04313,2.59175 -28.33622,15.33278 -5.42654,1.93869 0.52329,-0.30594 -1.03947,0.6239 -1.5592,0.93585 0,0 -13.00676,5.17259 -13.00676,5.17259 z"
         id="path3903"
         style="color:#000000;fill:#000000;fill-opacity:1;fill-rule:nonzero;stroke:none;stroke-width:1.20000005;marker:none;visibility:visible;display:inline;overflow:visible;enable-background:accumulate" />
      <path
         inkscape:export-ydpi="90"
         inkscape:export-xdpi="90"
         inkscape:export-filename="launcher.png"
         inkscape:connector-curvature="0"
         d="m 176.65499,519.28352 c 4.62926,2.22109 9.10478,4.69974 14.03544,6.18976 6.31251,1.2238 12.26864,3.71506 18.28373,5.91817 1.43304,0.57024 2.86609,1.14047 4.29913,1.71071 0,0 -11.28425,7.57237 -11.28425,7.57237 l 0,0 c -1.43427,-0.55123 -2.86853,-1.10246 -4.3028,-1.65368 -6.09493,-2.07565 -12.09272,-4.46831 -18.41803,-5.77307 -4.87339,-1.61491 -9.273,-4.22499 -14.09532,-5.96347 0,0 11.4821,-8.00079 11.4821,-8.00079 z"
         id="path3905"
         style="color:#000000;fill:#000000;fill-opacity:1;fill-rule:nonzero;stroke:none;stroke-width:1.20000005;marker:none;visibility:visible;display:inline;overflow:visible;enable-background:accumulate" />
      <path
         inkscape:export-ydpi="90"
         inkscape:export-xdpi="90"
         inkscape:export-filename="launcher.png"
         inkscape:connector-curvature="0"
         d="m 233.14461,531.0503 c 6.35064,0.0716 12.70178,0.10207 19.05283,0.10715 8.32265,0.17271 16.6612,-0.75206 24.67162,-3.0088 5.56173,-1.90918 10.76335,-4.68655 15.95114,-7.42014 1.44038,-0.75897 5.68297,-3.17785 4.2902,-2.33468 -2.51201,1.52076 -5.09994,2.91242 -7.64991,4.36864 7.1103,-4.17773 13.55026,-9.31646 20.02487,-14.38675 6.87554,-5.21836 8.77727,-9.10681 10.97271,-17.21441 0.87888,-3.43933 1.40001,-6.94743 1.89627,-10.45646 0,0 12.33679,-6.0682 12.33679,-6.0682 l 0,0 c -0.50818,3.56242 -1.04437,7.1224 -1.8902,10.62461 -2.12034,8.57774 -3.42423,12.33504 -10.60389,18.03271 -6.53889,5.06044 -12.93024,10.33696 -20.05026,14.59132 -11.66095,6.73675 -23.29044,14.15066 -36.10444,18.56963 -8.12918,2.05556 -16.4842,2.91487 -24.87419,2.71578 -6.44937,0.005 -12.89882,0.0365 -19.34779,0.10716 0,0 11.32425,-8.22756 11.32425,-8.22756 z"
         id="path3907"
         style="color:#000000;fill:#000000;fill-opacity:1;fill-rule:nonzero;stroke:none;stroke-width:1.20000005;marker:none;visibility:visible;display:inline;overflow:visible;enable-background:accumulate" />
      <path
         inkscape:export-ydpi="90"
         inkscape:export-xdpi="90"
         inkscape:export-filename="launcher.png"
         transform="matrix(1.1807229,0,0,1,-23.162008,0)"
         d="m 128.16311,335.70947 c 0,5.17445 -3.28455,9.36917 -7.33624,9.36917 -4.05169,0 -7.33623,-4.19472 -7.33623,-9.36917 0,-5.17444 3.28454,-9.36916 7.33623,-9.36916 4.05169,0 7.33624,4.19472 7.33624,9.36916 z"
         sodipodi:ry="9.3691645"
         sodipodi:rx="7.3362327"
         sodipodi:cy="335.70947"
         sodipodi:cx="120.82687"
         id="path3917"
         style="color:#000000;fill:#000000;fill-opacity:1;fill-rule:nonzero;stroke:none;stroke-width:1.20000005;marker:none;visibility:visible;display:inline;overflow:visible;enable-background:accumulate"
         sodipodi:type="arc" />
    </g>
  </g>
</svg>
